<svg width="364" height="566" viewBox="0 0 364 566" fill="none" xmlns="http://www.w3.org/2000/svg">
<g opacity="0.7" clip-path="url(#clip0_287_1181)">
<path d="M349.8 348.051C343.07 340.389 335.692 336.503 327.877 336.503C321.928 336.503 316.617 338.766 312.329 341.181C312.593 338.38 311.792 335.448 308.569 333.164C306.218 331.5 303.765 330.658 301.292 330.658C289.829 330.658 283.068 348.883 281.143 354.911L265.037 361.649C282.359 327.482 306.258 269.377 306.289 208.857C312.826 211.861 320.62 213.738 327.208 213.738C328.475 213.738 329.691 213.667 330.816 213.525C337.577 212.683 343.618 209.253 347.803 203.864C351.989 198.476 353.834 191.789 352.993 185.01C351.402 172.234 340.526 162.604 327.695 162.604C326.641 162.604 325.566 162.675 324.512 162.807C317.813 163.639 309.522 167.171 302.985 171.757C296.64 137.885 281.214 109.492 257.02 87.2081C262.422 85.7367 267.551 83.9507 270.004 80.2773C271.676 77.7709 272.173 74.6657 271.433 71.5301C270.48 67.5421 267.673 63.9803 263.73 61.7377C261.723 60.6012 259.635 60.0329 257.497 60.0329C254.223 60.0329 251.263 61.3623 248.729 63.3918C248.354 59.5966 247.057 55.8217 243.753 53.5588C241.949 52.3208 239.902 51.6714 237.844 51.6714C234.094 51.6714 230.425 53.8937 228.499 57.3235C226.928 60.1243 226.746 63.2903 227.952 66.02C207.245 54.4721 184.42 48.6271 159.963 48.6271C151.308 48.6271 142.368 49.3679 133.297 50.8291C136.429 43.2895 138.01 34.5423 137.189 27.987C135.598 15.2112 124.722 5.58118 111.891 5.58118C110.837 5.58118 109.762 5.65221 108.708 5.78413C94.7417 7.52951 84.7988 20.3154 86.532 34.2987C87.4644 41.8384 91.995 52.3614 98.4918 59.7184C47.0949 77.5172 -8.27499 116.798 -52.2223 166.562C-52.5365 166.653 -52.7899 166.775 -52.9723 166.876C-56.8744 168.165 -94.3148 174.507 -117.93 178.364C-121.863 176.75 -136.63 171.067 -149.979 171.067C-155.148 171.067 -159.597 171.93 -163.205 173.635C-173.412 178.455 -180.314 187.283 -182.625 198.486C-184.986 209.902 -181.986 222.079 -174.79 230.268C-168.06 237.93 -160.682 241.816 -152.867 241.816C-146.918 241.816 -141.607 239.553 -137.319 237.138C-137.583 239.939 -136.782 242.872 -133.559 245.155C-131.208 246.819 -128.755 247.661 -126.282 247.661C-114.819 247.661 -108.058 229.436 -106.133 223.409L-88.0714 215.859C-104.41 246.22 -112.072 280.346 -110.309 315.193C-108.433 352.222 -96.0784 387.413 -74.5709 417.135C-79.0508 423.051 -81.2603 424.33 -81.8583 424.604C-85.4564 422.463 -88.8112 415.41 -92.0749 408.581C-98.0041 396.14 -105.393 380.645 -120.434 380.645C-123.606 380.645 -127.002 381.365 -130.519 382.776C-142.56 387.616 -150.942 397.206 -152.958 408.419C-155.087 420.261 -149.786 432.661 -138.029 443.336C-108.89 469.822 -85.3348 485.997 -76.5474 491.72C-75.0068 492.725 -73.2331 493.252 -71.4087 493.252C-68.51 493.252 -65.8038 491.943 -63.9997 489.67L-37.0901 455.767C-35.5089 456.995 -33.9075 458.182 -32.3163 459.339C-31.2825 460.09 -30.1878 460.851 -29.0222 461.653L-52.6581 497.859C-55.344 501.969 -54.4825 507.378 -50.6513 510.432C-42.4619 516.967 -19.7179 534.269 14.5703 553.62C22.5976 558.146 30.3715 560.449 37.6589 560.449C57.3115 560.449 68.6125 543.828 69.6159 527.409C71.0653 503.775 49.0916 501.015 33.0472 498.996C25.5571 498.052 17.8339 497.078 14.6615 494.358C14.7325 493.628 15.2697 491.223 19.0806 485.581C38.0541 491.821 57.8487 494.987 77.9574 494.987C138.902 494.987 196.461 465.62 231.925 416.445C233.395 414.406 234.966 412.173 236.699 409.647C253.351 406.501 286.737 401.011 292.95 399.996C296.883 401.61 311.65 407.292 324.999 407.292C330.168 407.292 334.617 406.43 338.225 404.725C348.432 399.905 355.334 391.077 357.645 379.874C359.996 368.417 356.996 356.24 349.8 348.051Z" fill="white" stroke="white" stroke-miterlimit="10"/>
<path d="M37.6487 565.493C29.4796 565.493 20.8746 562.976 12.077 558.014C-22.5254 538.49 -45.5329 520.996 -53.8237 514.379C-59.7022 509.681 -61.0299 501.37 -56.915 495.058L-35.9447 462.941C-36.0258 462.881 -36.1069 462.82 -36.1981 462.759L-60.0367 492.796C-62.8138 496.296 -66.9592 498.296 -71.4188 498.296C-74.2364 498.296 -76.973 497.484 -79.3244 495.941C-88.2031 490.157 -112.032 473.809 -141.445 447.061C-154.529 435.168 -160.398 421.113 -157.955 407.485C-155.634 394.537 -146.087 383.527 -132.414 378.027C-128.289 376.373 -124.265 375.53 -120.444 375.53C-109.68 375.53 -102.301 381.731 -96.798 389.493C-107.724 366.458 -114.069 341.343 -115.386 315.406C-116.957 284.426 -111.18 253.689 -98.6122 225.712L-102.068 227.163C-105.291 236.306 -112.934 252.694 -126.282 252.694C-129.829 252.694 -133.255 251.537 -136.488 249.264C-138.394 247.915 -139.863 246.281 -140.867 244.424C-145.002 246.058 -148.965 246.849 -152.867 246.849C-162.202 246.849 -170.858 242.384 -178.591 233.576C-186.821 224.21 -190.267 210.359 -187.591 197.421C-184.946 184.625 -177.05 174.528 -165.374 169.007C-161.077 166.978 -155.898 165.953 -149.979 165.953C-136.995 165.953 -122.998 170.875 -117.353 173.087C-90.5748 168.713 -60.5333 163.528 -55.1413 162.178C-12.4102 114.079 40.1826 76.198 90.3024 57.2525C85.7313 50.3014 82.3866 41.9703 81.5048 34.8873C79.4271 18.1337 91.3463 2.80072 108.08 0.710322C109.347 0.547962 110.624 0.476929 111.881 0.476929C127.266 0.476929 140.311 12.0248 142.216 27.3274C142.845 32.4011 142.277 38.5201 140.686 44.6594C147.223 43.9084 153.679 43.5228 159.963 43.5228C182.322 43.5228 203.424 48.2617 222.844 57.6178C223.158 56.6639 223.573 55.7202 224.08 54.8069C226.888 49.794 232.29 46.557 237.844 46.557C240.925 46.557 243.956 47.521 246.611 49.3374C248.973 50.961 250.777 53.1326 251.993 55.842C256.737 54.2589 261.743 54.7663 266.223 57.2931C271.392 60.2257 275.092 64.9646 276.369 70.3225C277.443 74.8483 276.683 79.3741 274.23 83.0577C272.325 85.9193 269.548 87.8575 266.477 89.2782C286.413 109.695 299.843 134.658 306.491 163.65C312.319 160.555 318.573 158.403 323.894 157.734C325.151 157.581 326.428 157.5 327.695 157.5C343.08 157.5 356.125 169.038 358.02 184.351C359.023 192.469 356.814 200.495 351.797 206.949C346.78 213.403 339.543 217.513 331.435 218.528C330.117 218.69 328.688 218.781 327.198 218.781C322.181 218.781 316.617 217.848 311.225 216.163C309.654 267.429 292.221 316.228 275.487 351.755L277.058 351.095C280.281 341.952 287.923 325.564 301.272 325.564C304.819 325.564 308.245 326.721 311.478 329.004C313.384 330.354 314.853 331.987 315.857 333.844C319.992 332.211 323.955 331.419 327.867 331.419C337.202 331.419 345.858 335.884 353.591 344.692C361.821 354.048 365.267 367.91 362.591 380.848C359.946 393.654 352.05 403.741 340.364 409.261C336.067 411.29 330.898 412.315 324.978 412.315C311.975 412.315 297.988 407.394 292.352 405.182C283.849 406.572 255.713 411.219 239.658 414.203C238.361 416.08 237.155 417.785 236.01 419.368C199.603 469.872 140.503 500.021 77.9371 500.021C70.6801 500.021 63.4637 499.615 56.3081 498.823C66.9402 503.045 75.6769 511.081 74.6533 527.693C73.5079 546.476 60.4231 565.493 37.6487 565.493ZM-37.9617 448.664L-34.0089 451.718C-32.448 452.916 -30.8871 454.083 -29.3668 455.189C-28.3634 455.919 -27.2992 456.66 -26.1742 457.431L-22.0896 460.242L-48.4417 500.609C-49.6884 502.517 -49.2931 505.023 -47.5194 506.444C-39.4212 512.908 -16.9306 530.017 17.0332 549.175C24.3004 553.275 31.2229 555.345 37.6285 555.345C54.1493 555.345 63.6664 541.118 64.5279 527.064C65.6023 509.539 51.889 506.454 32.3884 503.998C23.7834 502.923 15.6548 501.898 11.3168 498.164L9.34045 496.459L9.57356 493.861C9.80667 491.253 11.5297 487.6 14.8339 482.699L16.9724 479.523L20.6111 480.72C39.0677 486.788 58.3453 489.873 77.9067 489.873C137.229 489.873 193.248 461.298 227.759 413.432C229.199 411.443 230.739 409.251 232.462 406.734L233.648 405.009L235.705 404.623C252.378 401.468 285.592 396.008 292.079 394.953L293.498 394.719L294.826 395.267C297.633 396.424 312.279 402.188 324.948 402.188C329.367 402.188 333.087 401.488 336.016 400.098C344.753 395.968 350.652 388.408 352.638 378.808C354.686 368.924 352.121 358.432 345.959 351.41C340.232 344.895 334.131 341.587 327.837 341.587C323.803 341.587 319.647 342.865 314.772 345.605L306.339 350.354L307.241 340.714C307.383 339.182 306.937 338.258 305.61 337.315C304.13 336.27 302.66 335.732 301.251 335.732C295.231 335.732 289.221 346.143 285.937 356.453L285.227 358.685L254.253 371.634L260.487 359.345C279.045 322.753 301.16 266.941 301.191 208.847V200.942L308.366 204.24C314.377 207 321.411 208.654 327.178 208.654C328.252 208.654 329.256 208.593 330.158 208.481C335.58 207.802 340.415 205.052 343.78 200.739C347.135 196.426 348.614 191.058 347.935 185.629C346.668 175.39 337.952 167.678 327.664 167.678C326.813 167.678 325.962 167.729 325.11 167.84C319.384 168.551 311.833 171.717 305.873 175.908L299.427 180.434L297.978 172.691C291.846 139.955 276.906 112.445 253.564 90.9424L246.814 84.7219L255.662 82.3068C259.808 81.1703 264.257 79.7192 265.757 77.4563C266.639 76.1371 266.892 74.4526 266.467 72.6971C265.848 70.079 263.923 67.6943 261.196 66.1519C258.135 64.4166 254.983 64.853 251.851 67.3493L244.574 73.1537L243.652 63.8788C243.196 59.3327 241.432 58.1252 240.854 57.7294C239.891 57.0698 238.837 56.7248 237.804 56.7248C235.888 56.7248 233.911 57.9527 232.888 59.7894C232.107 61.1897 231.986 62.6611 232.553 63.96L238.635 77.7911L225.448 70.4342C205.522 59.3226 183.478 53.6805 159.923 53.6805C151.571 53.6805 142.865 54.401 134.057 55.8115L125.087 57.2525L128.574 48.8503C131.412 42.021 132.8 34.0653 132.121 28.5856C130.854 18.3468 122.138 10.6346 111.85 10.6346C111.009 10.6346 110.148 10.6854 109.296 10.797C98.1067 12.1974 90.1402 22.4464 91.5287 33.6493C92.2889 39.7378 96.2113 49.4896 102.252 56.329L107.269 62.0117L100.113 64.4877C49.3146 82.0835 -4.83904 120.502 -48.462 169.89L-49.4147 170.966L-50.7019 171.352L-51.006 171.504L-51.4317 171.656C-57.0873 173.523 -114.707 182.93 -117.16 183.326L-118.569 183.559L-119.897 183.011C-123.849 181.387 -137.694 176.09 -150.029 176.09C-154.448 176.09 -158.168 176.791 -161.097 178.171C-169.834 182.301 -175.733 189.861 -177.719 199.46C-179.767 209.344 -177.202 219.847 -171.04 226.859C-165.314 233.373 -159.212 236.681 -152.918 236.681C-148.884 236.681 -144.728 235.403 -139.853 232.653L-131.421 227.904L-132.323 237.554C-132.465 239.086 -132.019 240.01 -130.691 240.954C-129.211 241.999 -127.741 242.537 -126.333 242.537C-120.312 242.537 -114.302 232.125 -111.018 221.805L-110.309 219.573L-76.8919 205.61L-83.6725 218.213C-99.5345 247.702 -107.014 281.128 -105.302 314.879C-103.477 350.882 -91.4464 385.191 -70.5167 414.101L-68.3072 417.146L-70.5776 420.139C-74.2973 425.05 -77.4088 428.085 -79.8414 429.17L-82.2434 430.246L-84.5037 428.896C-89.4092 425.974 -92.9465 418.566 -96.6865 410.722C-102.291 398.961 -108.636 385.658 -120.484 385.658C-123.008 385.658 -125.765 386.246 -128.684 387.423C-139.093 391.604 -146.32 399.773 -148.022 409.261C-149.827 419.317 -145.083 430.063 -134.674 439.531C-105.798 465.783 -82.507 481.765 -73.8412 487.417C-73.1317 487.884 -72.3107 488.128 -71.4593 488.128C-70.1113 488.128 -68.8545 487.519 -68.0133 486.463L-37.9617 448.664ZM21.1077 491.832C22.2935 492.156 23.6821 492.451 25.1619 492.714C23.8544 492.349 22.5571 491.963 21.2597 491.568C21.209 491.659 21.1584 491.75 21.1077 491.832ZM-86.6017 408.256C-85.0611 411.453 -83.2165 415.167 -81.5644 417.633C-81.3617 417.409 -81.159 417.176 -80.936 416.912C-82.8921 414.081 -84.7874 411.189 -86.6017 408.256Z" fill="white" stroke="white" stroke-miterlimit="10"/>
</g>
<g clip-path="url(#clip1_287_1181)">
<path d="M29.62 562.27C22.43 562.27 14.77 560.01 6.84 555.54C-26.99 536.47 -49.43 519.43 -57.51 512.98C-61.29 509.97 -62.14 504.64 -59.49 500.59L-36.17 464.91C-37.32 464.12 -38.39 463.37 -39.42 462.63C-40.99 461.5 -42.57 460.32 -44.13 459.11L-70.68 492.52C-72.46 494.77 -75.13 496.05 -77.99 496.05C-79.79 496.05 -81.55 495.53 -83.06 494.54C-91.72 488.9 -114.97 472.96 -143.72 446.86C-155.31 436.34 -160.54 424.12 -158.45 412.45C-156.46 401.39 -148.19 391.95 -136.31 387.18C-132.84 385.79 -129.49 385.08 -126.36 385.08C-111.51 385.08 -104.23 400.34 -98.38 412.6C-95.17 419.33 -91.85 426.28 -88.3 428.39C-87.7 428.12 -85.53 426.86 -81.11 421.03C-102.34 391.74 -114.52 357.06 -116.37 320.57C-118.11 286.23 -110.55 252.61 -94.43 222.68L-112.25 230.12C-114.15 236.06 -120.82 254.02 -132.13 254.02C-134.57 254.02 -136.99 253.19 -139.31 251.55C-142.49 249.31 -143.28 246.42 -143.02 243.65C-147.25 246.03 -152.48 248.26 -158.36 248.26C-166.07 248.26 -173.35 244.43 -179.99 236.88C-187.09 228.81 -190.05 216.81 -187.73 205.56C-185.44 194.52 -178.64 185.82 -168.57 181.07C-165.01 179.39 -160.62 178.54 -155.52 178.54C-142.35 178.54 -127.78 184.14 -123.9 185.73C-100.6 181.93 -63.66 175.68 -59.81 174.41C-59.62 174.31 -59.37 174.19 -59.07 174.1C-15.71 125.06 38.93 86.35 89.63 68.81C83.22 61.57 78.75 51.2 77.83 43.76C76.12 29.98 85.93 17.38 99.71 15.66C100.75 15.53 101.81 15.46 102.85 15.46C115.52 15.46 126.25 24.95 127.81 37.54C128.61 44 127.06 52.62 123.97 60.05C132.92 58.61 141.75 57.88 150.28 57.88C174.41 57.88 196.93 63.64 217.36 75.02C216.18 72.33 216.36 69.21 217.9 66.45C219.8 63.06 223.42 60.88 227.12 60.88C229.15 60.88 231.17 61.52 232.95 62.74C236.21 64.97 237.49 68.69 237.86 72.43C240.37 70.43 243.29 69.12 246.51 69.12C248.61 69.12 250.68 69.69 252.65 70.8C256.55 73 259.32 76.52 260.25 80.44C260.99 83.53 260.49 86.59 258.84 89.06C256.43 92.68 251.36 94.44 246.03 95.89C269.9 117.85 285.12 145.82 291.38 179.21C297.83 174.69 306 171.21 312.62 170.39C313.66 170.26 314.72 170.19 315.76 170.19C328.43 170.19 339.16 179.68 340.72 192.26C341.55 198.93 339.73 205.53 335.6 210.84C331.47 216.15 325.51 219.53 318.84 220.36C317.73 220.5 316.54 220.57 315.28 220.57C308.78 220.57 301.09 218.73 294.64 215.76C294.61 275.39 271.03 332.65 253.94 366.33L269.83 359.69C271.73 353.75 278.4 335.79 289.71 335.79C292.15 335.79 294.57 336.62 296.89 338.26C300.07 340.5 300.86 343.39 300.6 346.16C304.83 343.78 310.06 341.55 315.94 341.55C323.65 341.55 330.93 345.38 337.57 352.93C344.67 361 347.63 373 345.3 384.25C343.02 395.29 336.21 403.99 326.14 408.74C322.58 410.42 318.19 411.27 313.09 411.27C299.92 411.27 285.35 405.67 281.47 404.08C275.34 405.08 242.4 410.49 225.97 413.59C224.26 416.08 222.71 418.28 221.26 420.29C186.27 468.76 129.49 497.69 69.35 497.69C49.5 497.69 29.97 494.57 11.26 488.42C7.49999 493.98 6.96999 496.35 6.89999 497.07C10.03 499.76 17.66 500.72 25.04 501.65C40.87 503.64 62.55 506.36 61.12 529.65C60.16 545.89 49.01 562.27 29.62 562.27Z" fill="#FFBA3F"/>
<path d="M102.86 19C113.64 19 122.98 27.03 124.35 38.01C125.27 45.4 122.64 56.83 117.67 64.78C128.56 62.6 139.46 61.42 150.29 61.42C175.66 61.42 200.61 67.89 223.89 83.08C223.33 80.33 222.37 76.68 220.93 74.32C218.32 70.05 222.28 64.41 227.13 64.41C228.39 64.41 229.7 64.79 230.98 65.66C237.02 69.79 233.32 83.46 233.75 83.46C233.79 83.46 233.86 83.35 233.97 83.12C236.29 78.33 240.97 72.66 246.52 72.66C247.94 72.66 249.43 73.03 250.94 73.89C256.43 76.99 258.65 83.11 255.95 87.16C253.4 90.99 245.21 92.43 238.83 94.24C268.38 119.2 283.66 151.09 288.95 185.73C295.51 179.51 305.8 174.81 313.07 173.91C313.98 173.8 314.88 173.74 315.77 173.74C326.55 173.74 335.89 181.77 337.26 192.75C338.74 204.63 330.3 215.46 318.42 216.94C317.44 217.06 316.39 217.12 315.29 217.12C307.86 217.12 298.01 214.42 291.07 209.88C292.55 265.29 272.3 325.01 246.37 373.34L272.71 362.34C272.71 362.34 279.21 339.34 289.71 339.34C291.34 339.34 293.07 339.89 294.88 341.17C301.13 345.58 292.4 354.44 293.66 354.44C293.8 354.44 294.05 354.33 294.46 354.11C299.02 351.56 306.68 345.1 315.95 345.1C321.77 345.1 328.23 347.64 334.95 355.29C347.29 369.32 345.28 395.89 324.66 405.62C321.3 407.2 317.3 407.82 313.1 407.82C298.63 407.82 281.91 400.51 281.91 400.51C281.91 400.51 241.56 407.07 223.91 410.47C222.09 413.14 220.26 415.76 218.44 418.29C182.73 467.76 126.44 494.24 69.37 494.24C49.36 494.24 29.25 490.98 9.90997 484.32C5.56997 490.35 1.80997 496.97 4.10997 499.29C14.71 509.97 59.55 498.52 57.65 529.49C56.69 545.04 46.32 558.76 29.61 558.76C23.41 558.76 16.34 556.87 8.54997 552.48C-24.71 533.73 -46.72 517.11 -55.34 510.24C-57.69 508.36 -58.22 505.01 -56.57 502.5L-31.36 463.93C-33.38 462.59 -35.39 461.22 -37.38 459.78C-39.88 457.97 -42.33 456.11 -44.71 454.2L-73.43 490.33C-74.58 491.77 -76.28 492.54 -78 492.54C-79.09 492.54 -80.19 492.23 -81.16 491.6C-90.4 485.58 -113.11 469.93 -141.37 444.26C-165.82 422.06 -154.83 398.38 -135.01 390.42C-131.83 389.14 -128.97 388.57 -126.36 388.57C-105.38 388.57 -101.48 425.77 -89.49 431.72C-89.17 431.88 -88.83 431.95 -88.47 431.95C-85.38 431.95 -80.73 426.57 -76.76 421.03C-120.77 362.04 -125.89 280.17 -86.25 215.48L-115.12 227.53C-115.12 227.53 -121.62 250.53 -132.12 250.53C-133.75 250.53 -135.47 249.98 -137.29 248.7C-143.54 244.29 -134.81 235.43 -136.07 235.43C-136.21 235.43 -136.46 235.54 -136.87 235.76C-141.43 238.32 -149.09 244.77 -158.36 244.77C-164.18 244.77 -170.64 242.23 -177.36 234.58C-189.7 220.55 -187.69 193.98 -167.06 184.25C-163.7 182.67 -159.7 182.05 -155.5 182.05C-141.03 182.05 -124.31 189.36 -124.31 189.36C-124.31 189.36 -60.87 179.04 -58.27 177.59C-58.11 177.5 -58.01 177.45 -57.96 177.45C-57.64 177.45 -59.81 179.53 -62.86 183.9C-24.89 138.84 34.29 89.97 96.29 70.33C88.55 64.32 82.38 51.81 81.33 43.36C79.85 31.48 88.29 20.65 100.17 19.17C101.07 19.06 101.97 19 102.86 19ZM102.87 12C101.68 12 100.48 12.08 99.3 12.22C83.6 14.17 72.43 28.53 74.38 44.22C75.21 50.92 78.72 59.84 83.91 67.16C57.45 76.88 30.46 91.92 3.51997 111.96C-19.72 129.25 -41.88 149.57 -61.09 171.16C-65.77 172.45 -96 177.65 -123.48 182.13C-128.59 180.11 -142.63 175.05 -155.5 175.05C-161.12 175.05 -166.01 176.01 -170.05 177.92C-180.98 183.08 -188.67 192.9 -191.15 204.86C-193.7 217.16 -190.43 230.32 -182.62 239.2C-175.29 247.54 -167.12 251.77 -158.36 251.77C-153.67 251.77 -149.44 250.56 -145.74 248.94C-144.89 251.08 -143.4 252.95 -141.33 254.42C-138.4 256.48 -135.31 257.53 -132.13 257.53C-119.39 257.53 -112.14 240.72 -109.42 232.74L-101.84 229.58C-115.28 257.86 -121.48 289.01 -119.86 320.76C-118.02 357.04 -106.15 391.56 -85.47 420.94C-86.59 422.3 -87.47 423.24 -88.13 423.88C-90.45 421.06 -93.13 415.45 -95.2 411.1C-98.14 404.95 -101.47 397.97 -105.88 392.46C-111.66 385.24 -118.55 381.58 -126.34 381.58C-129.92 381.58 -133.71 382.37 -137.6 383.93C-150.6 389.15 -159.68 399.58 -161.88 411.83C-164.2 424.72 -158.58 438.09 -146.06 449.45C-117.12 475.73 -93.69 491.78 -84.96 497.47C-82.88 498.83 -80.46 499.55 -77.98 499.55C-74.05 499.55 -70.38 497.78 -67.93 494.69L-43.51 463.96C-42.83 464.47 -42.14 464.97 -41.46 465.46C-41.29 465.58 -41.12 465.7 -40.95 465.83L-62.42 498.68C-66.06 504.25 -64.89 511.58 -59.7 515.73C-51.55 522.23 -28.93 539.41 5.11996 558.6C13.57 563.36 21.81 565.78 29.62 565.78C39.42 565.78 48.35 561.82 54.77 554.64C60.56 548.16 64.07 539.39 64.65 529.94C65.37 518.29 60.59 509.45 50.82 504.39C43.3 500.49 33.85 499.3 25.52 498.26C20.74 497.66 14.57 496.88 11.16 495.57C11.51 494.84 12.02 493.88 12.78 492.65C31.06 498.37 50.08 501.27 69.39 501.27C98.99 501.27 128.62 494.3 155.06 481.11C182.36 467.49 206.25 447.19 224.13 422.42C225.36 420.72 226.66 418.88 228.06 416.84C244.09 413.85 273.3 409.04 281.1 407.77C286.21 409.79 300.25 414.85 313.12 414.85C318.74 414.85 323.63 413.89 327.67 411.98C338.6 406.82 346.29 397 348.77 385.03C351.32 372.73 348.05 359.57 340.24 350.69C332.9 342.35 324.74 338.12 315.98 338.12C311.29 338.12 307.05 339.33 303.36 340.95C302.51 338.81 301.02 336.94 298.95 335.48C296.02 333.41 292.93 332.37 289.75 332.37C277.01 332.37 269.77 349.18 267.04 357.16L261.26 359.57C277.42 326 296.9 274.75 298.12 221C303.78 222.99 309.86 224.14 315.32 224.14C316.72 224.14 318.06 224.06 319.31 223.91C335 221.96 346.18 207.6 344.23 191.91C342.45 177.58 330.22 166.77 315.8 166.77C314.62 166.77 313.41 166.84 312.23 166.99C306.47 167.71 299.81 170.17 293.84 173.59C287.33 143.69 273.56 118.18 252.76 97.52C256.47 96.1 259.73 94.17 261.79 91.07C263.98 87.79 264.65 83.75 263.69 79.7C262.53 74.83 259.15 70.5 254.4 67.82C251.89 66.4 249.25 65.68 246.53 65.68C244.29 65.68 242.18 66.17 240.23 67.01C239.26 64.27 237.62 61.74 234.94 59.91C232.57 58.29 229.87 57.44 227.14 57.44C222.12 57.44 217.41 60.26 214.87 64.8C214.11 66.15 213.6 67.56 213.33 68.99C193.93 59.33 172.8 54.44 150.3 54.44C143.43 54.44 136.39 54.9 129.24 55.81C131.18 49.36 131.98 42.65 131.3 37.16C129.52 22.81 117.29 12 102.87 12Z" fill="#1F395D"/>
<path d="M-29.35 448.68C26.83 489.24 100.2 488.96 155.55 454.14C160.59 449.47 165.2 444.28 169.33 438.56C210.33 381.76 187.23 295.05 117.74 244.89C48.2501 194.73 -41.3199 200.11 -82.3199 256.91C-86.4399 262.62 -89.9199 268.64 -92.7599 274.89C-108.37 338.4 -85.54 408.12 -29.35 448.68Z" fill="#FFF5D4"/>
<path d="M113.56 114.04C120.65 99.71 137.87 93.56 151.92 100.52C165.98 107.47 171.54 124.89 164.45 139.22C157.36 153.55 137.85 175.13 119.62 165.81C100.93 156.25 106.2 128.91 113.56 114.04Z" fill="white"/>
<path d="M243.26 207.66C254.63 196.42 255.04 178.14 244.01 166.99C232.98 155.84 214.7 156.04 203.33 167.28C191.96 178.52 177.62 203.84 192.21 218.2C207.18 232.94 231.47 219.33 243.26 207.66Z" fill="white"/>
<path d="M144.03 160.21C139.32 166.73 130.4 168.33 124.1 163.78C117.8 159.23 116.51 150.26 121.21 143.74C125.92 137.22 134.84 135.62 141.14 140.17C147.44 144.72 148.74 153.69 144.03 160.21Z" fill="#1F395D"/>
<path d="M213.28 210.2C208.51 216.81 199.45 218.43 193.06 213.82C186.67 209.21 185.36 200.1 190.13 193.49C194.9 186.88 203.96 185.26 210.35 189.87C216.75 194.49 218.06 203.59 213.28 210.2Z" fill="#1F395D"/>
<path d="M173.27 286C154.35 312.21 110.12 320.64 79.1899 298.31C48.2599 275.98 42.3199 231.36 61.2499 205.14C80.1699 178.93 120.59 175.78 151.52 198.11C182.46 220.43 192.19 259.79 173.27 286Z" fill="white"/>
<path d="M181.25 226.99C176.67 233.34 152.9 234.89 134.53 221.64C116.17 208.38 110.16 185.34 114.74 178.99C119.32 172.64 137.92 178.24 156.29 191.5C174.66 204.75 185.83 220.64 181.25 226.99Z" fill="#1F395D"/>
<path d="M112.05 218.5C112.91 233.6 130.85 246.66 146.59 241.98" stroke="#1F395D" stroke-width="7" stroke-miterlimit="10" stroke-linecap="round" stroke-linejoin="round"/>
</g>
<defs>
<clipPath id="clip0_287_1181">
<rect width="553" height="566" fill="white" transform="translate(-189)"/>
</clipPath>
<clipPath id="clip1_287_1181">
<rect width="541.61" height="553.77" fill="white" transform="translate(-192 12)"/>
</clipPath>
</defs>
</svg>
