<svg width="354" height="385" viewBox="0 0 354 385" fill="none" xmlns="http://www.w3.org/2000/svg">
<g opacity="0.7" clip-path="url(#clip0_287_1200)">
<path d="M457.453 178.669C453.692 167.175 438.583 158.157 423.053 158.157C422.665 158.157 422.276 158.168 421.877 158.178C421.54 158.189 421.215 158.189 420.878 158.189C408.323 158.189 397.879 151.04 388.674 144.731C382.276 140.343 376.203 136.186 369.93 134.674C352.257 106.047 323.258 77.5774 290.119 56.3617C253.891 33.1725 215.603 20.4074 182.328 20.4074C171.337 20.4074 160.851 21.772 151.027 24.4909C153.097 21.2472 154.526 17.9719 153.623 14.7806C152.551 10.949 148.684 8.37709 144.019 8.37709C140.825 8.37709 137.988 9.6473 136.234 11.8728C135.34 13.0065 134.437 14.7491 134.384 17.2056C132.472 11.6104 129.11 5.77368 122.406 5.77368C121.282 5.77368 120.116 5.95214 118.929 6.31956C111.469 8.58704 108.422 15.5365 109.262 21.2262C109.903 25.5512 112.803 28.4695 116.459 28.4695C116.817 28.4695 117.174 28.438 117.531 28.3855C117.689 28.3646 117.846 28.3436 117.993 28.3436C118.466 28.3436 119.191 28.459 120.042 29.4563C120.326 29.7922 120.578 30.1701 120.788 30.5586C119.328 30.1281 117.72 29.8342 116.06 29.8342C112.572 29.8342 109.535 31.1674 107.297 33.6763C105.101 36.1433 104.639 40.0904 106.173 43.4916C106.94 45.2132 108.106 46.5569 109.514 47.4492C84.0769 70.6175 67.0976 108.083 61.2978 154.42C56.0338 196.463 60.7409 241.487 73.8851 277.221C61.4028 270.324 42.7634 261.632 28.0536 261.632C13.7957 261.632 8.51065 269.61 6.57736 276.308C1.44995 294.143 22.1592 310.561 35.2089 317.448C58.1141 329.541 84.224 336.134 112.803 337.068C141.792 364.267 180.489 379.226 221.96 379.226C249.1 379.226 276.418 372.518 300.983 359.837C332.588 343.513 357.868 318.624 374.07 287.845C388.706 260.057 394.832 229.751 391.974 199.717C401.567 205.092 412.305 208.084 422.391 208.084C432.499 208.084 441.525 205.228 449.226 199.602C456.97 193.975 459.954 186.343 457.453 178.669Z" fill="white" stroke="white" stroke-miterlimit="10"/>
<path d="M221.992 384.475C179.922 384.475 140.478 369.485 110.691 342.233C82.0701 341.036 55.8656 334.265 32.7818 322.077C14.8358 312.598 -4.11876 294.553 1.55502 274.849C3.54084 267.952 9.62438 256.373 28.0747 256.373C39.6534 256.373 53.1758 261.181 64.8596 266.681C54.5312 232.291 51.3266 191.886 56.1073 153.759C61.718 108.934 78.0249 71.3313 102.201 47.1763C101.907 46.6829 101.634 46.158 101.392 45.6227C99.0388 40.3633 99.8374 34.1593 103.389 30.1702C104.219 29.2359 105.133 28.4171 106.121 27.7137C105.112 26.0551 104.408 24.1235 104.082 21.9925C102.905 14.0773 107.108 4.43001 117.416 1.29123C119.097 0.776845 120.788 0.524902 122.427 0.524902C126.073 0.524902 130.602 1.71113 134.458 6.30909C137.074 4.26205 140.426 3.12831 144.051 3.12831C151.101 3.12831 156.995 7.24337 158.708 13.3635C159.076 14.6862 159.212 15.9879 159.17 17.2476C166.62 15.8619 174.384 15.1691 182.349 15.1691C216.612 15.1691 255.898 28.2386 292.966 51.9527C326.011 73.0949 355.189 101.522 373.334 130.181C379.702 132.207 385.533 136.207 391.669 140.416C400.663 146.578 409.972 152.95 420.899 152.95C421.183 152.95 421.477 152.95 421.761 152.94C422.16 152.929 422.612 152.919 423.064 152.919C441.02 152.919 457.958 163.29 462.455 177.042C465.659 186.868 461.887 196.883 452.368 203.843C443.742 210.141 433.676 213.333 422.423 213.333C414.396 213.333 405.916 211.579 397.837 208.315C398.856 236.343 392.331 264.498 378.756 290.28C362.05 322.014 336.003 347.671 303.431 364.488C278.12 377.568 249.961 384.475 221.992 384.475ZM28.0747 266.87C19.1332 266.87 13.7641 270.429 11.6522 277.746C7.43893 292.38 26.8453 307.066 37.6991 312.797C59.8898 324.513 85.2327 330.906 113.013 331.809L114.988 331.872L116.438 333.226C144.44 359.501 181.928 373.967 222.002 373.967C248.301 373.967 274.789 367.469 298.609 355.166C329.257 339.335 353.749 315.212 369.457 285.388C383.547 258.619 389.536 229.163 386.783 200.2L385.838 190.227L394.59 195.13C403.458 200.095 413.345 202.824 422.444 202.824C431.417 202.824 439.402 200.316 446.19 195.361C449.573 192.894 454.89 187.645 452.494 180.286C449.447 170.975 436.261 163.395 423.095 163.395C422.759 163.395 422.433 163.395 422.097 163.406C421.677 163.416 421.299 163.427 420.92 163.427C406.736 163.427 395.094 155.459 385.743 149.056C379.744 144.941 374.08 141.056 368.732 139.765L366.631 139.261L365.496 137.424C348.244 109.469 319.749 81.535 287.314 60.7812C251.916 38.1274 214.637 25.6562 182.359 25.6562C171.873 25.6562 161.818 26.9684 152.467 29.5403L139.312 33.1725L139.007 46.8089L129.446 18.9062C126.746 11.0225 123.615 11.0225 122.438 11.0225C121.839 11.0225 121.177 11.1275 120.484 11.3374C115.325 12.9016 114.074 17.6465 114.484 20.4494C114.694 21.8246 115.388 23.2102 116.48 23.2102C116.564 23.2102 116.659 23.1997 116.743 23.1893C117.216 23.1158 117.626 23.0843 118.025 23.0843C120.337 23.0843 122.427 24.113 124.077 26.0446C124.581 26.6325 125.044 27.3043 125.443 28.0496L131.463 39.1561L119.338 35.5869C115.861 34.5687 113.108 35.083 111.248 37.1616C110.544 37.9489 110.229 39.639 110.996 41.3396C111.332 42.085 111.794 42.6518 112.341 42.9982L118.193 46.6724L113.087 51.3229C88.6579 73.5673 72.1305 110.414 66.5407 155.071C61.3818 196.263 65.8683 240.122 78.8444 275.415L83.7091 288.642L71.3739 281.819C53.9323 272.182 38.5606 266.87 28.0747 266.87ZM144.04 13.6259C142.464 13.6259 141.13 14.1718 140.384 15.1166C139.911 15.7149 139.68 16.4288 139.659 17.3211L139.302 33.1725L146.614 21.6671C148.254 19.0952 148.895 17.3001 148.59 16.1978C148.159 14.6862 146.289 13.6259 144.04 13.6259Z" fill="white" stroke="white" stroke-miterlimit="10"/>
</g>
<g clip-path="url(#clip1_287_1200)">
<path d="M232.199 372.137C192.144 372.137 154.748 357.653 126.742 331.317C99.1221 330.412 73.9075 324.029 51.7788 312.319C39.1715 305.652 19.1542 289.754 24.1179 272.485C25.9857 266 31.0915 258.275 44.8661 258.275C59.0772 258.275 77.0847 266.691 89.1439 273.369C76.4452 238.759 71.9078 195.174 76.9832 154.465C82.5865 109.599 98.9901 73.3224 123.565 50.8894C122.195 50.0255 121.078 48.7244 120.337 47.0574C118.865 43.7641 119.302 39.9423 121.423 37.5536C123.596 35.1243 126.519 33.8335 129.889 33.8335C131.493 33.8335 133.046 34.1282 134.457 34.5348C134.254 34.1587 134.01 33.7928 133.736 33.4675C132.924 32.5019 132.214 32.3901 131.757 32.3901C131.615 32.3901 131.462 32.4003 131.31 32.4308C130.965 32.4816 130.61 32.5121 130.275 32.5121C126.742 32.5121 123.951 29.6965 123.322 25.4986C122.499 19.9895 125.443 13.2606 132.66 11.0651C133.807 10.7195 134.934 10.5365 136.02 10.5365C142.496 10.5365 145.734 16.1778 147.592 21.6056C147.643 19.2271 148.526 17.5398 149.379 16.4421C151.074 14.2872 153.815 13.0573 156.9 13.0573C161.407 13.0573 165.133 15.5476 166.178 19.2576C167.051 22.3476 165.66 25.5189 163.671 28.6597C173.162 26.0373 183.282 24.7058 193.91 24.7058C226.058 24.7058 263.037 37.0759 298.047 59.5191C330.073 80.0614 358.089 107.627 375.152 135.346C381.212 136.82 387.08 140.845 393.261 145.094C402.154 151.203 412.243 158.125 424.374 158.125C424.688 158.125 425.013 158.114 425.338 158.114C425.714 158.104 426.089 158.094 426.475 158.094C441.478 158.094 456.075 166.815 459.709 177.955C462.135 185.386 459.242 192.775 451.791 198.223C444.35 203.672 435.621 206.436 425.866 206.436C416.131 206.436 405.747 203.539 396.479 198.335C399.24 227.416 393.322 256.761 379.182 283.666C363.53 313.468 339.107 337.568 308.573 353.374C284.821 365.642 258.418 372.137 232.199 372.137Z" fill="#3072B4"/>
<path d="M136.01 14.094C144.699 14.094 145.572 31.1906 147.095 32.4104C147.308 32.5832 147.562 32.6645 147.836 32.6645C149.693 32.6645 152.607 28.9341 151.389 23.8417C150.181 18.8205 153.51 16.6148 156.901 16.6148C159.489 16.6148 162.108 17.9057 162.758 20.213C163.864 24.167 157.52 30.4588 154.86 35.3479C167.153 30.4791 180.308 28.2633 193.9 28.2633C261.352 28.2633 339.351 82.8566 372.919 138.527C387.202 140.835 401.9 161.682 424.364 161.682C424.719 161.682 425.074 161.672 425.429 161.672C425.775 161.662 426.11 161.662 426.455 161.662C448.248 161.662 468.164 181.828 449.67 195.367C442.452 200.653 434.19 202.889 425.836 202.889C413.776 202.889 401.535 198.223 392.013 191.291C401.149 253.233 368.555 318.327 306.909 350.233C282.831 362.695 257.2 368.61 232.199 368.61C193.19 368.61 155.743 354.207 128.204 327.83C90.5651 326.844 65.5231 315.603 53.4336 309.199C41.344 302.805 23.2553 288.352 27.5287 273.491C29.9142 265.167 36.3295 261.853 44.8561 261.853C59.0774 261.853 79.1861 271.082 96.28 281.714C65.7668 211.579 72.0298 92.086 134.295 46.7118C133.066 46.7931 131.696 47.098 130.204 47.8502C129.28 48.3178 128.417 48.5211 127.646 48.5211C123.474 48.5211 121.708 42.5952 124.073 39.9422C125.758 38.0618 127.829 37.4113 129.889 37.4113C133.056 37.4113 136.162 38.936 137.665 39.7999C137.848 39.9016 138.01 39.9524 138.152 39.9524C140.334 39.9524 138.436 28.8528 131.757 28.8528C131.432 28.8528 131.107 28.8833 130.762 28.9341C130.59 28.9646 130.427 28.9748 130.265 28.9748C125.413 28.9748 124.712 17.2247 133.676 14.4904C134.518 14.216 135.29 14.094 136.01 14.094ZM136.01 6.97888C134.569 6.97888 133.097 7.21266 131.615 7.6599C122.479 10.445 118.764 19.0034 119.799 26.0169C120.155 28.4259 121.078 30.5299 122.408 32.1868C121.068 32.9593 119.84 33.9554 118.764 35.1751C115.678 38.6514 115.018 43.8759 117.079 48.5007C117.455 49.3444 117.911 50.1169 118.429 50.8284C94.7473 73.983 78.9526 109.975 73.4509 154.018C68.7105 191.982 72.243 232.437 82.881 266.03C70.9741 260.105 56.8544 254.717 44.8663 254.717C32.391 254.717 23.8136 260.674 20.7074 271.499C15.4798 289.703 33.2944 306.556 50.1244 315.46C72.3749 327.231 97.6605 333.736 125.301 334.824C139.177 347.641 155.317 357.694 173.325 364.717C192.002 372.005 211.816 375.705 232.199 375.705C258.977 375.705 285.947 369.078 310.167 356.535C341.35 340.394 366.291 315.765 382.289 285.323C390.003 270.645 395.363 255.063 398.225 239.003C400.286 227.446 401.027 215.828 400.428 204.312C408.671 207.981 417.461 209.994 425.825 209.994C436.21 209.994 445.904 206.914 453.852 201.1C462.622 194.676 465.982 185.843 463.048 176.847C458.968 164.335 442.889 154.536 426.445 154.536C426.028 154.536 425.622 154.547 425.206 154.557C424.922 154.567 424.638 154.567 424.353 154.567C413.32 154.567 404.133 148.255 395.251 142.156C389.252 138.04 383.537 134.116 377.416 132.276C360.008 104.527 331.941 77.0527 299.945 56.5307C264.377 33.7216 226.718 21.1583 193.9 21.1481C185.546 21.1481 177.476 21.9511 169.762 23.5266C170.097 21.8292 170.097 20.0809 169.589 18.2919C168.117 13.0369 163.011 9.49967 156.89 9.49967C153.185 9.49967 149.805 10.8617 147.44 13.2707C143.583 7.87335 138.761 6.97888 136.01 6.97888Z" fill="#1F395D"/>
<path d="M133.513 291.492C135.888 312.604 148.942 331.388 167.64 340.577C208.822 360.824 258.195 362.135 301.478 339.733C344.903 317.259 372.422 275.981 379.639 230.455C382.847 210.187 375.224 188.933 359.693 174.967C316.542 136.149 255.262 124.785 204.173 151.223C153.246 177.589 127.057 233.972 133.513 291.492Z" fill="#E7F3FC"/>
<path d="M217.034 168.106C217.957 169.905 217.257 172.111 215.47 173.036C213.684 173.961 211.481 173.259 210.547 171.471C209.624 169.682 210.324 167.476 212.111 166.541C213.907 165.616 216.11 166.317 217.034 168.106Z" fill="white"/>
<path d="M300.209 93.387C311.822 115.881 303.021 143.539 280.557 155.157C258.094 166.785 230.473 157.972 218.871 135.478C207.258 112.984 216.059 85.3266 238.523 73.7086C260.987 62.0906 288.607 70.8931 300.209 93.387Z" fill="white"/>
<path d="M182.907 154.099C194.519 176.593 185.719 204.251 163.255 215.869C140.791 227.497 113.171 218.684 101.568 196.19C89.956 173.696 98.7567 146.039 121.22 134.421C143.684 122.793 171.294 131.605 182.907 154.099Z" fill="white"/>
<path d="M235.133 128.17C240.34 136.23 250.572 139.168 258.002 134.716C265.422 130.264 267.229 120.13 262.022 112.059C256.815 103.999 246.583 101.061 239.152 105.513C231.722 109.965 229.925 120.099 235.133 128.17Z" fill="#1F395D"/>
<path d="M167.538 163.146C171.091 172.06 167.559 182.123 159.641 185.609C151.724 189.096 142.425 184.705 138.862 175.79C135.3 166.876 138.842 156.813 146.76 153.327C154.688 149.83 163.986 154.231 167.538 163.146Z" fill="#1F395D"/>
<path d="M256.936 146.537C263.981 160.188 250.206 181.34 226.169 193.781C202.132 206.223 176.938 205.237 169.893 191.586C162.849 177.935 176.623 156.783 200.66 144.341C224.698 131.9 249.892 132.876 256.936 146.537Z" fill="#FFA63F"/>
</g>
<defs>
<clipPath id="clip0_287_1200">
<rect width="464.094" height="385" fill="white"/>
</clipPath>
<clipPath id="clip1_287_1200">
<rect width="444.32" height="368.716" fill="white" transform="translate(19.7734 6.97888)"/>
</clipPath>
</defs>
</svg>
