<svg width="110" height="110" viewBox="0 0 110 110" fill="none" xmlns="http://www.w3.org/2000/svg">
<path d="M110 55C110 85.3757 85.3757 110 55 110C24.6243 110 0 85.3757 0 55C0 24.6243 24.6243 0 55 0C85.3757 0 110 24.6243 110 55Z" fill="#267AF8"/>
<g clip-path="url(#clip0_249_1600)">
<path d="M51.2104 63.7109L47.8306 59.5078C47.1508 58.6656 45.9771 58.3742 44.9773 58.8067L36.4885 62.4403C35.4002 62.9091 34.8072 64.0958 35.0716 65.2364L36.8906 73.1114C37.1449 74.2188 38.1213 75 39.2714 75C47.6741 75 55.3961 72.0734 61.5065 67.2148L54.5629 61.7805C53.5184 62.4922 52.4231 63.1484 51.2104 63.7109ZM79.3524 71.6484L66.8657 61.875C71.9535 55.7055 75.0572 47.8516 75.0572 39.2578C75.0572 38.1125 74.2772 37.1328 73.1623 36.8789L65.2853 35.0635C64.136 34.7974 62.9593 35.3926 62.4829 36.4791L58.8433 44.9557C58.4178 45.9541 58.7047 47.1174 59.5458 47.8033L63.7565 51.2471C62.7974 53.1328 61.6003 55.0156 60.2155 56.6719L33.0367 35.3993C32.6924 35.1307 32.284 35 31.8803 35C31.3233 35 30.7701 35.2467 30.4009 35.7179C29.7603 36.5335 29.9026 37.7124 30.7192 38.3507L76.9653 74.5304C77.7868 75.1713 78.9658 75.0248 79.6011 74.2118C80.3147 73.4688 80.1661 72.2891 79.3524 71.6484Z" fill="white"/>
</g>
<defs>
<clipPath id="clip0_249_1600">
<rect width="50.0719" height="40" fill="white" transform="translate(30 35)"/>
</clipPath>
</defs>
</svg>
