<svg width="110" height="110" viewBox="0 0 110 110" fill="none" xmlns="http://www.w3.org/2000/svg">
<path d="M55 0C24.6211 0 0 24.6211 0 55C0 85.3789 24.6211 110 55 110C85.3789 110 110 85.3789 110 55C110 24.6211 85.3789 0 55 0ZM55 27.5C58.7963 27.5 61.875 30.5787 61.875 34.375C61.875 38.1713 58.7963 41.25 55 41.25C51.2037 41.25 48.125 38.1777 48.125 34.375C48.125 30.5723 51.1973 27.5 55 27.5ZM66.3438 83.375H49.1562C46.3203 83.375 44 81.0762 44 78.2188C44 75.3613 46.3096 73.0625 49.1562 73.0625H52.5938V59.3125H50.875C48.0283 59.3125 45.7188 57.0029 45.7188 54.1562C45.7188 51.3096 48.0391 49 50.875 49H57.75C60.5967 49 62.9062 51.3096 62.9062 54.1562V73.0625H66.3438C69.1904 73.0625 71.5 75.3721 71.5 78.2188C71.5 81.0654 69.2012 83.375 66.3438 83.375Z" fill="#267AF8"/>
</svg>
