<svg width="174" height="23" viewBox="0 0 174 23" fill="none" xmlns="http://www.w3.org/2000/svg">
<path d="M14.0656 22.4556C13.8313 22.5108 13.5105 22.5696 13.1068 22.6358C12.703 22.7021 12.2597 22.7572 11.7802 22.8087C11.3008 22.8602 10.8034 22.9044 10.2951 22.9412C9.78682 22.978 9.3074 22.9964 8.8532 22.9964C7.51945 22.9964 6.30827 22.8492 5.22324 22.5586C4.13822 22.268 3.2082 21.7566 2.43319 21.0245C1.65817 20.2924 1.05618 19.3102 0.634431 18.0704C0.212679 16.8343 0 15.2708 0 13.3836V10.5619C0 8.67103 0.212679 7.10753 0.634431 5.87144C1.05618 4.63536 1.65457 3.65311 2.43319 2.92471C3.2082 2.1963 4.13822 1.68862 5.22324 1.40167C6.30827 1.11473 7.51945 0.971252 8.8532 0.971252C9.3074 0.971252 9.78682 0.989647 10.2951 1.02643C10.8034 1.06322 11.2972 1.11105 11.7802 1.16623C12.2597 1.22141 12.703 1.28395 13.1068 1.35385C13.5105 1.42375 13.8313 1.48629 14.0656 1.54147V4.69422C13.7196 4.66479 13.3447 4.63536 12.9374 4.60225C12.53 4.56914 12.1083 4.54339 11.6721 4.51764C11.2359 4.49556 10.7998 4.47349 10.3636 4.4551C9.92741 4.4367 9.50566 4.42935 9.09832 4.42935C8.22598 4.42935 7.46538 4.51764 6.81653 4.70158C6.16768 4.88184 5.62697 5.20558 5.19441 5.66543C4.76184 6.12896 4.44102 6.75804 4.22834 7.54899C4.01566 8.33993 3.90752 9.34425 3.90752 10.5583V13.3799C3.90752 14.5939 4.01566 15.5946 4.22834 16.3892C4.44102 17.1801 4.76544 17.8092 5.19441 18.2728C5.62697 18.7363 6.16408 19.06 6.81653 19.244C7.46538 19.4279 8.22598 19.5236 9.09832 19.5236C9.50566 19.5236 9.92741 19.5162 10.3636 19.5015C10.7998 19.4868 11.2359 19.4684 11.6721 19.4389C12.1083 19.4095 12.53 19.3801 12.9374 19.347C13.3447 19.3139 13.7232 19.2844 14.0656 19.255V22.4556Z" fill="white"/>
<path d="M25.774 22.5402V21.4844C25.5288 21.6499 25.2369 21.8228 24.8944 21.9994C24.5556 22.176 24.1735 22.3342 23.7589 22.4776C23.3408 22.6211 22.883 22.7388 22.3855 22.8308C21.8845 22.9228 21.3582 22.9706 20.8067 22.9706C19.3467 22.9706 18.2113 22.5917 17.411 21.8375C16.6072 21.0834 16.207 19.9319 16.207 18.3831V17.7871C16.207 16.7203 16.3873 15.8705 16.7441 15.2304C17.1046 14.5903 17.6093 14.101 18.2617 13.7662C18.9142 13.4277 19.6964 13.207 20.6048 13.1077C21.5132 13.0047 22.5189 12.9532 23.6256 12.9532H25.4928V11.9525C25.4928 11.386 25.4531 10.9261 25.3774 10.5693C25.3018 10.2125 25.1431 9.93654 24.9088 9.7342C24.6709 9.53555 24.3429 9.39943 23.9139 9.32953C23.4886 9.25964 22.9298 9.22653 22.2377 9.22653C21.4483 9.22653 20.6444 9.25228 19.8262 9.30378C19.0079 9.35528 18.1644 9.43254 17.2921 9.53187V7.00452C17.4543 6.93094 17.7174 6.84265 18.0815 6.73964C18.4456 6.63663 18.8745 6.54099 19.3684 6.44901C19.8622 6.35704 20.4065 6.27611 21.0013 6.21357C21.5961 6.14735 22.2125 6.11792 22.8469 6.11792C24.1014 6.11792 25.1323 6.22829 25.947 6.45269C26.7617 6.67342 27.4069 7.02291 27.8827 7.4938C28.3586 7.96469 28.6902 8.57169 28.8812 9.30746C29.0723 10.0432 29.166 10.9261 29.166 11.9562V22.5439H25.774V22.5402ZM25.5721 15.2561H23.6256C22.9443 15.2561 22.3603 15.2855 21.8773 15.3407C21.3906 15.3959 20.9905 15.5063 20.6805 15.6755C20.3669 15.8411 20.1398 16.0839 19.992 16.4039C19.8478 16.724 19.7757 17.147 19.7757 17.6768V18.3574C19.7757 18.7289 19.8298 19.0343 19.9379 19.2734C20.0461 19.5125 20.1975 19.7075 20.3885 19.851C20.5796 19.9944 20.8103 20.0938 21.0842 20.149C21.3582 20.2041 21.6502 20.2336 21.9782 20.2336C22.3603 20.2336 22.7352 20.2005 23.1029 20.1306C23.4705 20.0607 23.813 19.976 24.1302 19.8804C24.4474 19.7847 24.7322 19.6781 24.9881 19.5603C25.2441 19.4463 25.4387 19.3433 25.5721 19.2624V15.2561Z" fill="white"/>
<path d="M33.1699 22.5401V0.43042H36.8467V22.5401H33.1699Z" fill="white"/>
<path d="M41.1484 22.5401V0.43042H44.8253V22.5401H41.1484Z" fill="white"/>
<path d="M65.2063 13.2585C65.2063 14.8146 65.0333 16.1831 64.6836 17.364C64.3339 18.5449 63.7788 19.5309 63.0146 20.3255C62.2504 21.1164 61.2663 21.7124 60.0515 22.1097C58.8403 22.507 57.3696 22.7057 55.6466 22.7057C55.0121 22.7057 54.4354 22.702 53.9163 22.6983C53.3972 22.6946 52.8926 22.6836 52.3987 22.6689C51.9049 22.6542 51.4002 22.6358 50.8883 22.6137C50.3765 22.5916 49.8069 22.5659 49.1797 22.5365V1.39058C49.8069 1.36115 50.3656 1.33908 50.8595 1.32069C51.3533 1.30229 51.8436 1.28758 52.323 1.27286C52.8024 1.25815 53.3071 1.24711 53.8334 1.23975C54.3597 1.23239 54.9617 1.22504 55.643 1.22504C57.3228 1.22504 58.7647 1.42001 59.965 1.81733C61.169 2.21096 62.1567 2.80325 62.9317 3.59052C63.7067 4.37779 64.2799 5.35635 64.6476 6.52254C65.0152 7.68873 65.1991 9.04621 65.1991 10.595V13.2585H65.2063ZM61.342 10.5876C61.342 9.43985 61.2303 8.47968 61.0032 7.7108C60.7761 6.94193 60.4264 6.32756 59.9542 5.86771C59.482 5.40786 58.8836 5.08412 58.1555 4.8965C57.4273 4.7052 56.5658 4.61323 55.5673 4.61323H52.9935V19.358H55.5673C56.5658 19.358 57.4273 19.2549 58.1555 19.0526C58.88 18.8503 59.482 18.5118 59.9542 18.0373C60.4264 17.5664 60.7761 16.941 61.0032 16.1611C61.2303 15.3811 61.342 14.4136 61.342 13.2548V10.5876Z" fill="white"/>
<path d="M81.5994 22.29C81.0083 22.4298 80.2188 22.5769 79.2311 22.7351C78.2434 22.8933 77.0899 22.9706 75.7742 22.9706C74.3576 22.9706 73.1608 22.8234 72.1839 22.5328C71.207 22.2422 70.414 21.7786 69.8012 21.1495C69.192 20.5205 68.7522 19.7074 68.4819 18.7105C68.2115 17.7135 68.0781 16.5142 68.0781 15.1052V14.1193C68.0781 11.4338 68.6729 9.42882 69.8661 8.10076C71.0592 6.77638 72.8255 6.1142 75.165 6.1142C76.4699 6.1142 77.5766 6.32021 78.4778 6.73224C79.3789 7.14427 80.1107 7.71816 80.6694 8.45393C81.2282 9.18969 81.6283 10.0689 81.8734 11.0953C82.1185 12.1217 82.2411 13.2364 82.2411 14.4504V15.7012H71.7549V15.9918C71.7549 16.5768 71.791 17.1028 71.8631 17.5774C71.9352 18.052 72.1118 18.453 72.393 18.7877C72.6741 19.1225 73.0959 19.38 73.651 19.5603C74.2098 19.7406 74.9704 19.8325 75.9328 19.8325C76.7583 19.8325 77.6487 19.7994 78.6003 19.7295C79.552 19.6596 80.5505 19.575 81.5958 19.472V22.29H81.5994ZM78.5643 13.0083C78.5643 12.5448 78.5318 12.0812 78.4633 11.6177C78.3948 11.1542 78.2434 10.7385 78.0091 10.3743C77.7748 10.0064 77.4324 9.70841 76.989 9.47664C76.5456 9.24487 75.9436 9.13083 75.183 9.13083C74.4477 9.13083 73.8565 9.24855 73.4095 9.47664C72.9625 9.70841 72.6165 10.0101 72.3786 10.3816C72.137 10.7532 71.9784 11.1689 71.9027 11.6324C71.827 12.096 71.7874 12.5558 71.7874 13.0083V13.2585H78.5679V13.0083H78.5643Z" fill="white"/>
<path d="M86.4347 22.5402V9.53185L83.6699 9.28169V6.51521H86.4347V4.97379C86.4347 4.2417 86.496 3.56848 86.6186 2.95779C86.7411 2.34711 86.9646 1.82471 87.2855 1.38693C87.6063 0.952832 88.0533 0.610701 88.6264 0.36422C89.1996 0.117739 89.9349 -0.00366211 90.8325 -0.00366211C91.4958 -0.00366211 92.1194 0.0441626 92.7034 0.136133C93.2873 0.228104 93.7884 0.33479 94.2065 0.456191V2.84743C93.8172 2.82903 93.4135 2.81064 92.9953 2.79224C92.5772 2.77385 92.1663 2.76649 91.7553 2.76649C91.3732 2.76649 91.074 2.80696 90.8577 2.89157C90.6415 2.97618 90.4792 3.10494 90.3711 3.28521C90.263 3.46547 90.1945 3.70091 90.1728 3.98786C90.1512 4.27481 90.1404 4.62062 90.1404 5.02897V6.51521H94.1561V9.53185H90.1404V22.5402H86.4347Z" fill="white"/>
<path d="M109.299 22.29C108.707 22.4298 107.918 22.5769 106.93 22.7351C105.943 22.8933 104.789 22.9706 103.473 22.9706C102.057 22.9706 100.86 22.8234 99.8831 22.5328C98.9062 22.2422 98.1132 21.7786 97.5004 21.1495C96.8912 20.5205 96.4514 19.7074 96.1811 18.7105C95.9107 17.7135 95.7773 16.5142 95.7773 15.1052V14.1193C95.7773 11.4338 96.3721 9.42882 97.5653 8.10076C98.7584 6.77638 100.525 6.1142 102.864 6.1142C104.169 6.1142 105.276 6.32021 106.177 6.73224C107.078 7.14427 107.81 7.71816 108.369 8.45393C108.927 9.18969 109.327 10.0689 109.573 11.0953C109.818 12.118 109.94 13.2364 109.94 14.4504V15.7012H99.4542V15.9918C99.4542 16.5768 99.4902 17.1028 99.5623 17.5774C99.6344 18.052 99.811 18.453 100.092 18.7877C100.373 19.1225 100.795 19.38 101.35 19.5603C101.909 19.7406 102.67 19.8325 103.632 19.8325C104.458 19.8325 105.348 19.7994 106.3 19.7295C107.251 19.6596 108.25 19.575 109.295 19.472V22.29H109.299ZM106.26 13.0083C106.26 12.5448 106.227 12.0812 106.159 11.6177C106.09 11.1542 105.939 10.7385 105.705 10.3743C105.47 10.0064 105.128 9.70841 104.685 9.47664C104.241 9.24487 103.639 9.13083 102.879 9.13083C102.143 9.13083 101.552 9.24855 101.105 9.47664C100.658 9.70841 100.312 10.0101 100.074 10.3816C99.8326 10.7532 99.674 11.1689 99.5983 11.6324C99.5226 12.096 99.483 12.5558 99.483 13.0083V13.2585H106.263V13.0083H106.26Z" fill="white"/>
<path d="M123.336 22.5402V12.383C123.336 11.8091 123.307 11.3235 123.249 10.9298C123.192 10.5362 123.08 10.2161 122.914 9.96965C122.752 9.72317 122.525 9.54658 122.24 9.4399C121.955 9.33321 121.584 9.28171 121.13 9.28171C120.593 9.28171 119.984 9.37368 119.299 9.5613C118.614 9.74524 117.85 10.0101 117.002 10.3522V22.5402H113.354V6.51891H116.869V7.79914C117.723 7.29882 118.574 6.89415 119.421 6.58513C120.272 6.27611 121.133 6.11792 122.017 6.11792C123.123 6.11792 124.01 6.27243 124.673 6.58513C125.337 6.89415 125.841 7.32825 126.191 7.88376C126.541 8.43926 126.768 9.10145 126.879 9.87032C126.991 10.6392 127.042 11.478 127.042 12.3866V22.5439H123.336V22.5402Z" fill="white"/>
<path d="M140.667 22.5401V21.7198C140.13 22.0619 139.495 22.3562 138.76 22.6027C138.024 22.8492 137.195 22.9706 136.269 22.9706C135.342 22.9706 134.517 22.8271 133.792 22.5401C133.064 22.2532 132.451 21.8117 131.947 21.2194C131.442 20.6272 131.06 19.8804 130.797 18.9827C130.534 18.0851 130.4 17.0219 130.4 15.8005V13.5234C130.4 12.1144 130.566 10.9371 130.898 9.988C131.229 9.03887 131.691 8.27735 132.286 7.70345C132.88 7.12956 133.594 6.72121 134.423 6.48208C135.252 6.24296 136.172 6.12156 137.181 6.12156C137.772 6.12156 138.331 6.15099 138.857 6.20617C139.383 6.26135 139.913 6.34229 140.45 6.44162V0.43042H144.127V22.5401H140.667ZM140.476 9.53183C139.938 9.44722 139.405 9.381 138.879 9.32949C138.352 9.27799 137.905 9.25224 137.541 9.25224C136.975 9.25224 136.482 9.30742 136.053 9.41043C135.624 9.51711 135.263 9.72313 134.968 10.0285C134.672 10.3338 134.448 10.7679 134.297 11.3271C134.146 11.8863 134.074 12.6184 134.074 13.516V15.7932C134.074 16.5069 134.131 17.1139 134.25 17.6216C134.369 18.1256 134.557 18.5376 134.816 18.8576C135.076 19.1777 135.407 19.4095 135.811 19.5529C136.215 19.6964 136.705 19.77 137.278 19.77C137.851 19.77 138.403 19.7038 138.936 19.575C139.47 19.4463 139.982 19.2734 140.472 19.06V9.53183H140.476Z" fill="white"/>
<path d="M161.106 22.29C160.515 22.4298 159.726 22.5769 158.738 22.7351C157.75 22.8933 156.597 22.9706 155.281 22.9706C153.864 22.9706 152.668 22.8234 151.691 22.5328C150.714 22.2422 149.921 21.7786 149.308 21.1495C148.699 20.5205 148.259 19.7074 147.989 18.7105C147.718 17.7135 147.585 16.5142 147.585 15.1052V14.1193C147.585 11.4338 148.18 9.42882 149.373 8.10076C150.566 6.77638 152.332 6.1142 154.672 6.1142C155.977 6.1142 157.083 6.32021 157.985 6.73224C158.886 7.14427 159.618 7.71816 160.176 8.45393C160.735 9.18969 161.135 10.0689 161.38 11.0953C161.625 12.118 161.748 13.2364 161.748 14.4504V15.7012H151.262V15.9918C151.262 16.5768 151.298 17.1028 151.37 17.5774C151.442 18.052 151.619 18.453 151.9 18.7877C152.181 19.1225 152.603 19.38 153.158 19.5603C153.717 19.7406 154.477 19.8325 155.44 19.8325C156.265 19.8325 157.156 19.7994 158.107 19.7295C159.059 19.6596 160.057 19.575 161.103 19.472V22.29H161.106ZM158.071 13.0083C158.071 12.5448 158.039 12.0812 157.97 11.6177C157.902 11.1542 157.75 10.7385 157.516 10.3743C157.282 10.0064 156.939 9.70841 156.496 9.47664C156.052 9.24487 155.45 9.13083 154.69 9.13083C153.955 9.13083 153.363 9.24855 152.916 9.47664C152.469 9.70841 152.123 10.0101 151.885 10.3816C151.644 10.7532 151.485 11.1689 151.41 11.6324C151.334 12.096 151.294 12.5558 151.294 13.0083V13.2585H158.075V13.0083H158.071Z" fill="white"/>
<path d="M165.165 22.5402V6.51888H168.651V7.82487C169.015 7.49009 169.408 7.21418 169.83 6.99713C170.251 6.78008 170.691 6.6035 171.145 6.46738C171.599 6.33494 172.068 6.23929 172.548 6.18779C173.027 6.13629 173.514 6.11053 174.004 6.11053V9.55759C173.524 9.55759 173.038 9.57966 172.555 9.62749C172.068 9.67531 171.599 9.74153 171.145 9.82982C170.691 9.91812 170.266 10.0211 169.866 10.1425C169.465 10.2639 169.116 10.3927 168.817 10.5325V22.5402H165.165Z" fill="white"/>
</svg>
