<svg width="844" height="200" viewBox="0 0 844 200" fill="none" xmlns="http://www.w3.org/2000/svg">
<g clip-path="url(#clip0_287_1219)">
<path d="M101.356 178.244C95.7586 178.244 90.6817 176.622 86.4611 173.562C82.5157 176.071 77.8975 177.387 72.8512 177.387H46.5795C39.6369 177.387 33.5201 174.908 28.8713 170.257C24.2225 165.606 21.7452 159.455 21.7452 152.54V125.949C21.7452 121.726 22.6627 117.779 24.4366 114.29C22.9686 111.169 22.1734 107.558 22.1734 103.611C22.1734 99.8777 22.8768 96.4811 24.1919 93.4823C22.8768 90.4836 22.1734 87.0564 22.1734 83.3538C22.1734 82.2828 22.2346 81.2118 22.3569 80.202C17.8916 75.9793 15.292 69.8593 15.292 62.6072C15.292 55.202 18.0446 48.9903 22.7545 44.7981C22.6627 43.9413 22.6322 43.0846 22.6322 42.1972C22.6322 28.5191 32.1744 18.9719 45.8455 18.9719H73.891C80.6501 18.9719 86.3693 21.2975 90.4676 25.3061C93.0061 22.0931 95.8504 20.1347 98.2359 18.9719C101.417 17.4114 104.934 16.6464 108.726 16.6464C111.479 16.6464 114.415 17.0748 117.473 17.9316C121.786 19.1249 125.119 20.8997 127.658 22.8581C127.933 22.6439 128.239 22.4603 128.545 22.2767C132.337 19.8899 136.711 18.6965 141.543 18.6965C143.745 18.6965 146.1 18.9719 148.486 19.4615C159.159 21.8483 163.992 27.7847 166.224 32.344C167.753 35.4652 169.007 39.994 168.182 45.8385C176.134 49.7247 180.966 57.7112 180.966 68.0539C180.966 74.7859 178.917 80.508 175.308 84.7614C176.898 88.1274 177.754 92.0442 177.754 96.3893C177.754 101.744 176.47 106.457 174.146 110.312C176.47 114.137 177.754 118.819 177.754 124.143C177.754 127.754 177.173 131.059 176.072 133.996C181.027 138.433 183.902 145.043 183.902 153.06C183.902 168.115 173.809 178.213 158.762 178.213H101.356V178.244Z" fill="#173551"/>
<path d="M108.726 31.9462C110.103 31.9462 111.662 32.191 113.375 32.65C120.532 34.6084 122.764 39.0759 120.134 46.0221C118.085 50.8262 116.158 54.9878 114.415 58.5068H125.853C128.3 52.6316 130.319 47.3379 131.878 42.6561C132.949 39.0453 134.539 36.5668 136.65 35.251C137.965 34.4248 139.586 33.9964 141.512 33.9964C142.644 33.9964 143.898 34.1494 145.244 34.4248C153.073 36.1996 155.092 41.0955 151.269 49.1127C149.709 52.2338 148.149 55.3856 146.559 58.5068H156.101C162.462 58.5068 165.643 61.6892 165.643 68.0539C165.643 74.4187 162.462 77.601 156.101 77.601H144.51V86.9952H153.012C159.282 86.9952 162.401 90.1163 162.401 96.3893C162.401 102.754 159.282 105.936 153.012 105.936H144.51V114.749H153.012C159.282 114.749 162.401 117.87 162.401 124.143C162.401 130.508 159.282 133.69 153.012 133.69H144.51V143.238H158.762C165.307 143.238 168.61 146.512 168.61 153.091C168.61 159.67 165.337 162.944 158.762 162.944H139.983H101.356C98.5112 162.944 96.2174 162.056 94.4435 160.312C92.6697 158.537 91.8133 156.242 91.8133 153.397V95.2265C91.6298 95.4101 91.2628 95.7773 90.7735 96.3281C90.2841 96.8789 89.8865 97.2767 89.6113 97.5827C89.1219 98.1641 88.6632 98.4701 88.2656 98.4701C87.868 98.4701 87.4704 98.1641 87.134 97.5827C86.8281 97.1849 86.4611 96.6035 85.9718 95.8079C84.412 93.3599 83.1274 91.4933 82.1488 90.2387V91.2791H45.4479C40.1569 91.2791 37.5266 88.6475 37.5266 83.3538C37.5266 78.06 40.1569 75.4285 45.4479 75.4285H81.4147C82.4852 73.9597 83.525 72.4909 84.5037 71.0221H38.8112C33.3366 71.0221 30.584 68.2375 30.584 62.6377C30.584 57.1604 33.3366 54.4064 38.8112 54.4064H77.4082C80.2525 54.4064 82.5463 55.2938 84.3202 57.038C86.0941 58.8128 86.9505 61.1078 86.9505 63.9535V67.0441C92.2415 58.1396 96.6456 48.9291 100.163 39.4431C101.233 36.016 102.824 33.7822 104.934 32.7724C106.004 32.191 107.289 31.9462 108.726 31.9462ZM111.479 86.9952H118.085H124.844V77.601H111.479V86.9952ZM111.479 114.749H118.085H124.844V105.936H111.479V114.749ZM114.996 143.268H124.844V133.721H118.085H111.479V139.749C111.479 142.075 112.641 143.268 114.996 143.268ZM73.8911 34.2718C79.1821 34.2718 81.8123 36.9034 81.8123 42.1971C81.8123 47.4909 79.1821 50.1224 73.8911 50.1224H45.8455C40.5544 50.1224 37.9242 47.4909 37.9242 42.1971C37.9242 36.9034 40.5544 34.2718 45.8455 34.2718H59.7918H73.8911ZM74.1969 95.6549C79.4879 95.6549 82.1182 98.2865 82.1182 103.58C82.1182 108.874 79.4879 111.506 74.1969 111.506H45.4173C40.1263 111.506 37.496 108.874 37.496 103.58C37.496 98.2865 40.1263 95.6549 45.4173 95.6549H59.7918H74.1969ZM72.8512 116.371C75.6955 116.371 77.9893 117.258 79.7632 119.003C81.5371 120.747 82.3934 123.072 82.3934 125.918V152.509C82.3934 155.355 81.5065 157.65 79.7632 159.425C78.0199 161.2 75.6955 162.056 72.8512 162.056H46.5795C43.7352 162.056 41.4414 161.169 39.6675 159.425C37.8936 157.681 37.0373 155.355 37.0373 152.509V125.918C37.0373 123.072 37.9242 120.777 39.6675 119.003C41.4108 117.228 43.7352 116.371 46.5795 116.371H59.6389H72.8512ZM58.1709 145.471H60.954C63.309 145.471 64.4712 144.309 64.4712 141.952V139.321V135.649C64.4712 133.874 63.5842 133.017 61.8409 133.017H58.1709C55.8159 133.017 54.6537 134.18 54.6537 136.536V141.983C54.6537 144.278 55.8465 145.471 58.1709 145.471ZM108.726 1.34644C102.579 1.34644 96.7985 2.66223 91.5075 5.2326C90.7429 5.5998 89.9477 6.0282 89.1525 6.48719C84.5343 4.65121 79.3962 3.67202 73.8911 3.67202H59.7918H45.8455C24.6813 3.67202 8.99171 18.2681 7.46251 38.8617C2.72198 45.2877 0 53.4272 0 62.6071C0 71.4811 2.53848 79.437 6.97316 85.7712C7.12608 88.4333 7.49309 91.0037 8.10477 93.4517C7.34017 96.6341 6.91199 100.031 6.91199 103.58C6.91199 107.252 7.34017 110.741 8.16594 114.045C7.03433 117.84 6.45323 121.818 6.45323 125.918V152.509C6.45323 163.433 10.5821 173.562 18.0446 181.059C25.5377 188.556 35.661 192.656 46.5795 192.656H72.8512C77.3776 192.656 81.7817 191.952 85.88 190.575C90.6817 192.503 95.9116 193.544 101.325 193.544H139.922H158.701C182.128 193.544 199.133 176.53 199.133 153.091C199.133 144.339 196.778 136.506 192.588 130.11C192.832 128.182 192.955 126.193 192.955 124.174C192.955 119.247 192.19 114.596 190.753 110.312C192.19 106.028 192.955 101.377 192.955 96.4199C192.955 93.1151 192.618 89.9327 191.945 86.9034C194.667 81.3648 196.166 75.0001 196.166 68.0539C196.166 55.6916 191.395 45.1347 183.443 37.9437C182.893 33.0478 181.455 28.9168 179.895 25.6426C176.868 19.4309 169.222 8.44558 151.88 4.55941L151.758 4.52881L151.697 4.49821C148.241 3.76382 144.815 3.36602 141.512 3.36602C136.925 3.36602 132.429 4.10041 128.239 5.5386C126.098 4.59001 123.835 3.76382 121.449 3.12122C117.167 1.95843 112.855 1.34644 108.726 1.34644Z" fill="#173551"/>
<path d="M281.037 182.803C265.561 182.803 253.45 181.365 244.03 178.427C238.219 176.652 232.867 174.204 228.004 171.053C226.964 172.154 225.894 173.225 224.824 174.296L224.395 174.663C218.982 179.468 213.171 181.977 207.177 182.13H206.687C202.344 182.13 195.738 180.783 189.101 174.419C180.63 166.187 179.529 158.201 180.079 152.938C180.813 146.389 184.391 140.392 190.783 135.037C193.475 131.977 195.707 128.488 197.512 124.388C187.664 121.297 181.486 112.638 181.486 100.918C181.486 90.6977 186.288 82.803 194.148 78.9474C194.117 78.4884 194.117 78.0294 194.117 77.5704V43.9719C194.117 37.0563 196.564 30.9058 201.243 26.2546C205.923 21.5729 212.039 19.1249 218.951 19.1249H303.363C310.275 19.1249 316.423 21.5729 321.072 26.2546C325.751 30.9364 328.198 37.0563 328.198 43.9719V77.601C328.198 78.0294 328.198 78.4272 328.167 78.8556C336.211 82.65 341.104 90.6059 341.104 100.979C341.104 109.976 337.434 117.167 331.256 121.45C331.654 123.348 331.837 125.337 331.837 127.448C331.837 130.08 331.531 132.558 330.92 134.853C333.183 135.894 335.415 137.362 337.373 139.443L337.648 139.719C341.532 144.064 345.233 151.867 340.829 164.474C338.229 172.277 333.427 176.561 329.88 178.764C325.353 181.487 320.032 182.834 313.915 182.834H281.037V182.803Z" fill="#173551"/>
<path d="M303.333 34.4247C306.177 34.4247 308.471 35.3121 310.245 37.0563C312.019 38.8311 312.875 41.126 312.875 43.9718V77.601C312.875 80.4467 311.988 82.7417 310.245 84.5165C308.471 86.2913 306.177 87.1481 303.333 87.1481H218.921C216.076 87.1481 213.783 86.2607 212.009 84.5165C210.235 82.7417 209.378 80.4467 209.378 77.601V43.9718C209.378 41.126 210.265 38.8311 212.009 37.0563C213.783 35.2815 216.076 34.4247 218.921 34.4247H261.066H303.333ZM229.809 53.9473H260.637H291.466V49.1126H233.326C230.971 49.1126 229.809 50.2754 229.809 52.6316V53.9473ZM231.705 72.4602H260.637H291.466V67.6254H229.809V70.563C229.809 71.8176 230.42 72.4602 231.705 72.4602ZM316.545 91.7074C322.723 91.7074 325.781 94.798 325.781 100.949C325.781 107.222 322.692 110.343 316.545 110.343H273.544V118.268H307.462C313.517 118.268 316.576 121.297 316.576 127.387C316.576 133.568 313.548 136.628 307.462 136.628H273.544V147.491C274.431 147.491 275.838 147.491 277.795 147.491C279.752 147.583 281.282 147.644 282.352 147.644C283.973 147.674 286.297 147.705 289.386 147.705C295.473 147.705 304.434 147.644 316.27 147.521C316.545 147.521 316.82 147.521 317.095 147.521C321.714 147.521 324.772 148.317 326.24 149.878C327.892 151.744 327.953 154.927 326.393 159.425C325.414 162.362 323.885 164.474 321.836 165.728C319.879 166.891 317.248 167.503 313.915 167.503H281.037C267.243 167.503 256.417 166.279 248.587 163.831C239.198 160.985 231.552 155.906 225.68 148.562C222.56 154.039 218.737 158.935 214.241 163.25C211.611 165.606 209.134 166.799 206.84 166.86C206.779 166.86 206.748 166.86 206.687 166.86C204.424 166.86 202.099 165.698 199.714 163.403C196.472 160.281 195.004 157.344 195.31 154.59C195.616 151.958 197.604 149.143 201.335 146.206C207.023 140.147 211.275 132.65 214.119 123.745C215.006 120.226 216.505 117.625 218.676 115.973C220.542 114.504 222.713 113.77 225.19 113.77C225.833 113.77 226.506 113.831 227.209 113.923C234.549 114.902 237.241 119.002 235.283 126.255C235.283 126.438 235.222 126.775 235.069 127.203C234.916 127.632 234.794 127.999 234.702 128.305C238.311 135.74 244.183 140.942 252.318 143.88V110.343H206.014C199.836 110.343 196.778 107.222 196.778 100.949C196.778 94.7674 199.867 91.7074 206.014 91.7074H261.218H316.545ZM303.333 3.82495H261.066H218.921C208.002 3.82495 197.879 7.92532 190.416 15.4223C182.923 22.9498 178.794 33.0783 178.794 43.9718V71.0832C170.904 78.213 166.163 88.7087 166.163 100.979C166.163 111.72 169.772 121.114 175.92 128.091C169.527 134.945 165.827 142.717 164.879 151.224C164.114 158.415 164.848 172.246 178.397 185.373L178.458 185.434L178.519 185.496C188.826 195.41 199.53 197.491 206.687 197.491H207.023H207.482C213.232 197.368 221.52 195.808 230.206 189.657C233.234 191.004 236.354 192.166 239.626 193.146C250.514 196.512 264.063 198.164 281.037 198.164H313.915C322.845 198.164 330.828 196.114 337.587 192.044L337.77 191.952L337.954 191.83C346.059 186.811 352.084 179.039 355.356 169.37C362.452 148.776 354.469 135.587 349.056 129.559L348.781 129.253L348.505 128.978C348.047 128.519 347.588 128.029 347.129 127.601C347.129 127.57 347.129 127.57 347.129 127.54C352.971 120.624 356.365 111.475 356.365 101.04C356.365 88.6169 351.533 78.0294 343.459 70.8996V44.0636C343.459 33.1395 339.33 23.011 331.868 15.5447C324.374 7.92532 314.251 3.82495 303.333 3.82495Z" fill="#173551"/>
<path d="M368.813 176.928C361.87 176.928 355.754 174.449 351.105 169.798C346.456 165.147 343.979 159.027 343.979 152.081V43.9719C343.979 37.0563 346.425 30.9058 351.105 26.2546C355.784 21.5729 361.901 19.1249 368.813 19.1249H476.408C483.32 19.1249 489.467 21.5729 494.116 26.2546C498.795 30.9364 501.242 37.0563 501.242 43.9719V152.081C501.242 159.027 498.765 165.147 494.116 169.798C489.467 174.449 483.35 176.928 476.408 176.928H368.813Z" fill="#173551"/>
<path d="M476.438 34.4247C479.283 34.4247 481.576 35.3121 483.35 37.0563C485.124 38.8311 485.98 41.1261 485.98 43.9718V152.081C485.98 154.927 485.094 157.222 483.35 158.996C481.576 160.771 479.283 161.628 476.438 161.628H368.844C365.999 161.628 363.705 160.74 361.932 158.996C360.158 157.222 359.301 154.927 359.301 152.081V43.9718C359.301 41.1261 360.188 38.8311 361.932 37.0563C363.705 35.2815 365.999 34.4247 368.844 34.4247H422.58H476.438ZM381.291 141.799H462.767V56.3035H421.968H381.291V141.799ZM443.102 70.41C445.946 70.41 448.24 71.2974 450.014 73.0416C451.788 74.8164 452.644 77.1114 452.644 79.9571V118.574C452.644 121.42 451.757 123.715 450.014 125.49C448.24 127.264 445.946 128.121 443.102 128.121H421.968H400.835C397.99 128.121 395.696 127.234 393.923 125.49C392.149 123.715 391.292 121.42 391.292 118.574V79.9571C391.292 77.1114 392.179 74.8164 393.923 73.0416C395.696 71.2668 397.99 70.41 400.835 70.41H443.102ZM414.781 109.761H427.84C430.195 109.761 431.357 108.599 431.357 106.242V92.4418C431.357 90.0857 430.195 88.9229 427.84 88.9229H414.781C412.426 88.9229 411.264 90.0857 411.264 92.4418V99.3574V106.273C411.233 108.599 412.426 109.761 414.781 109.761ZM476.438 3.82495H422.549H368.813C357.895 3.82495 347.771 7.92532 340.309 15.4223C332.816 22.9192 328.687 33.0783 328.687 43.9718V152.081C328.687 163.005 332.816 173.133 340.309 180.63C347.771 188.097 357.925 192.228 368.813 192.228H476.408C487.326 192.228 497.45 188.097 504.943 180.63C512.405 173.164 516.534 163.035 516.534 152.081V43.9718C516.534 33.0477 512.405 22.9192 504.943 15.4223C497.45 7.92532 487.326 3.82495 476.438 3.82495ZM411.875 86.9033H421.968H432.183V111.199H411.875V86.9033Z" fill="#173551"/>
<path d="M593.575 184.7C583.421 184.7 575.561 180.11 571.524 172.491C567.456 179.927 559.657 184.394 549.687 184.394C534.67 184.394 524.547 174.357 524.547 159.394V159.058C512.191 157.528 504.147 148.256 504.147 135.037C504.147 130.355 505.157 126.163 507.053 122.644C504.514 118.788 503.138 113.954 503.138 108.446C503.138 102.876 504.576 98.0111 507.175 94.1555C502.374 89.8715 499.59 83.4762 499.59 75.7038C499.59 68.7271 501.854 62.8519 505.83 58.6292C505.096 56.1506 504.698 53.4578 504.698 50.5814C504.698 36.475 514.026 26.8972 528.003 26.6218C532.193 19.5533 539.87 15.2999 549.626 15.2999C559.382 15.2999 567.059 19.5839 571.218 26.7442C572.809 26.8972 574.338 27.1726 575.806 27.5704C580.455 22.9805 586.541 20.5631 593.392 20.5631H637.433C644.375 20.5631 650.492 23.0417 655.141 27.6928C659.79 32.344 662.267 38.4945 662.267 45.4101V63.3415C662.267 70.0429 661.319 75.4897 659.361 79.9266C659.3 80.049 659.239 80.202 659.178 80.3244C659.239 80.4162 659.331 80.508 659.392 80.5998C663.399 85.9242 664.928 92.6255 663.919 100.52L663.796 101.255C661.625 113.464 658.597 124.633 654.713 134.517C660.615 138.892 664.286 144.003 665.662 149.725C666.977 154.988 666.916 163.066 659.545 172.032C653.153 179.804 646.088 181.671 641.317 181.854H640.705C635.812 181.854 631.01 180.294 626.086 177.142C622.018 179.957 617.431 181.457 612.599 181.457C611.956 181.457 611.314 181.426 610.672 181.365C609.632 181.273 608.592 181.12 607.583 180.906C603.729 183.384 598.989 184.7 593.575 184.7Z" fill="#173551"/>
<path d="M549.687 30.5998C556.14 30.5998 559.382 33.8433 559.382 40.2999V41.9217H568.343C574.124 41.9217 576.999 44.798 576.999 50.5814C576.999 56.4565 574.124 59.3941 568.343 59.3941H559.382V66.8911H573.482C579.354 66.8911 582.29 69.8286 582.29 75.7038C582.29 81.6707 579.354 84.6695 573.482 84.6695H572.166L574.95 85.4039C576.234 85.7099 576.601 86.4443 576.112 87.6071C575.806 88.4027 575.317 89.6267 574.644 91.2791C574.246 92.1665 573.971 92.8091 573.757 93.1763C573.084 94.7368 572.136 96.9094 570.974 99.6328H571.279C577.06 99.6328 579.935 102.57 579.935 108.446C579.935 114.412 576.999 117.411 571.127 117.411H559.382V126.224H569.659C575.531 126.224 578.467 129.162 578.467 135.037C578.467 141.004 575.531 144.002 569.659 144.002H559.382V159.425C559.382 165.881 556.14 169.125 549.687 169.125C543.142 169.125 539.839 165.881 539.839 159.425V144.002H528.248C522.376 144.002 519.44 141.004 519.44 135.037C519.44 129.162 522.376 126.224 528.248 126.224H539.839V117.411H527.208C521.336 117.411 518.4 114.412 518.4 108.446C518.4 102.57 521.336 99.6328 527.208 99.6328H527.636C526.963 96.022 526.076 92.7785 525.006 89.9327C524.608 88.6475 524.669 87.5459 525.159 86.6279C525.648 85.7099 526.535 85.0979 527.789 84.7919L528.217 84.6389H523.66C517.788 84.6389 514.852 81.6401 514.852 75.6732C514.852 69.798 517.788 66.8605 523.66 66.8605H539.808V59.3635H528.645C522.865 59.3635 519.99 56.4259 519.99 50.5508C519.99 44.7674 522.865 41.8911 528.645 41.8911H539.808V40.2693C539.839 33.8433 543.112 30.5998 549.687 30.5998ZM559.076 84.6389H540.42C541.399 86.9033 542.286 89.3513 543.05 91.9829C543.356 92.8703 543.693 94.186 544.09 95.9608C544.396 97.6132 543.662 98.7148 541.888 99.2044L540.267 99.6328H559.046L556.538 98.8984C555.253 98.5924 554.886 97.9804 555.376 97.0012C556.691 93.3598 557.914 89.2595 559.076 84.6389ZM637.463 35.8935C640.308 35.8935 642.601 36.7809 644.375 38.5251C646.149 40.2999 647.006 42.5949 647.006 45.4406V63.3721C647.006 67.8703 646.455 71.3586 645.385 73.8066C644.1 76.5606 641.898 78.6108 638.778 79.9878C635.353 81.5483 630.521 82.4969 624.251 82.7723C624.006 82.7723 623.731 82.7723 623.486 82.7723C617.094 82.7723 613.118 80.3244 611.62 75.4284C609.418 68.4822 612.721 64.9939 621.468 64.9939C621.713 64.9939 621.957 64.9939 622.202 64.9939C622.997 64.9939 623.762 64.9939 624.557 64.9939C625.719 64.9021 626.514 64.7185 626.912 64.4737C627.309 64.2289 627.493 63.7087 627.493 62.9437V57.9559C627.493 55.5998 626.331 54.437 623.976 54.437H606.512C604.157 54.437 602.995 55.5998 602.995 57.9559V86.9033H640.277C643.397 86.9033 645.721 87.9131 647.25 89.9021C648.779 91.9217 649.269 94.8286 648.779 98.6536C646.027 114.137 641.867 127.387 636.301 138.464C639.237 141.585 641.837 144.033 644.07 145.808C647.984 148.348 650.247 150.887 650.829 153.458C651.501 156.089 650.492 159.088 647.74 162.423C645.476 165.177 643.152 166.585 640.705 166.677C638.442 166.677 635.812 165.545 632.784 163.311C630.246 161.047 627.799 158.599 625.444 155.967C623.303 158.813 620.979 161.414 618.532 163.739C616.666 165.422 614.678 166.279 612.599 166.279C612.384 166.279 612.17 166.279 611.926 166.248C609.571 166.065 607.583 164.871 605.901 162.729C604.922 161.75 603.943 160.771 602.965 159.792V160.098C602.965 166.371 599.845 169.492 593.575 169.492C587.122 169.492 583.88 166.31 583.88 159.945V45.4406C583.88 42.5949 584.767 40.2999 586.51 38.5251C588.284 36.7503 590.578 35.8935 593.422 35.8935H615.443H637.463ZM628.808 103.611H616.33C617.492 106.946 618.593 109.792 619.572 112.117C620.856 115.147 622.171 117.901 623.548 120.349C625.78 115.055 627.524 109.486 628.808 103.611ZM603.821 149.725C604.218 149.725 604.769 149.388 605.472 148.684C608.5 145.441 611.192 142.258 613.547 139.137C609.54 131.977 606.023 124.021 602.965 115.208V133.262V147.644C602.965 149.051 603.24 149.725 603.821 149.725ZM549.687 0C537.545 0 527.147 4.52876 519.929 12.1787C501.823 15.8507 489.437 30.8752 489.437 50.5814C489.437 52.0808 489.498 53.5496 489.651 54.9572C486.225 60.8629 484.298 67.9009 484.298 75.6732C484.298 83.3843 486.164 90.3611 489.528 96.2668C488.427 100.061 487.846 104.131 487.846 108.446C487.846 113.8 488.764 118.819 490.415 123.348C489.406 126.989 488.855 130.906 488.855 135.037C488.855 151.53 497.419 164.749 510.723 170.9C515.311 188.127 530.297 199.725 549.687 199.725C557.853 199.725 565.224 197.644 571.371 193.941C577.61 197.827 585.195 200 593.575 200C599.631 200 605.258 198.837 610.274 196.726C611.039 196.787 611.834 196.787 612.568 196.787C617.247 196.787 621.804 195.961 626.086 194.339C630.888 196.236 635.751 197.185 640.675 197.185H641.286L641.898 197.154C653.092 196.695 663.552 191.248 671.35 181.763C683.278 167.258 682.3 153.397 680.526 146.144C679.119 140.33 676.427 135.037 672.451 130.263C675.082 122.062 677.223 113.28 678.874 103.917L678.996 103.182L679.088 102.448C680.373 92.3807 678.568 84.4859 675.908 78.5802C677.039 73.9902 677.59 68.9412 677.59 63.3109V45.3794C677.59 34.4553 673.461 24.3268 665.998 16.8299C658.505 9.33292 648.382 5.23256 637.463 5.23256H615.443H593.422C587.275 5.23256 581.372 6.54835 576.051 9.02693C569.139 3.33537 560.025 0 549.687 0Z" fill="#173551"/>
<path d="M689.426 178.519C674.042 178.519 663.704 168.115 663.704 152.632C663.704 137.24 674.042 126.897 689.426 126.897H718.909V124.449H703.525C688.141 124.449 677.804 114.045 677.804 98.5618C677.804 86.8421 683.798 78.0293 693.463 74.5104C679.669 73.2864 670.616 63.2497 670.616 48.7454C670.616 33.3537 680.954 23.011 696.338 23.011H794.696C810.08 23.011 820.417 33.3537 820.417 48.7454C820.417 62.9131 811.762 72.8274 798.488 74.388C808.306 77.8457 814.423 86.6891 814.423 98.5312C814.423 114.015 804.085 124.419 788.701 124.419H771.85V126.867H802.067C817.45 126.867 827.788 137.209 827.788 152.601C827.788 168.084 817.45 178.488 802.067 178.488H689.426V178.519Z" fill="#173551"/>
<path d="M794.696 38.3721C801.638 38.3721 805.125 41.8605 805.125 48.8066C805.125 55.8446 801.638 59.3941 794.696 59.3941H756.527V88.1885H788.671C795.613 88.1885 799.1 91.6769 799.1 98.623C799.1 105.661 795.613 109.211 788.671 109.211H756.527V142.258H802.036C808.979 142.258 812.465 145.747 812.465 152.693C812.465 159.731 808.979 163.28 802.036 163.28H745.67H689.456C682.514 163.28 679.027 159.761 679.027 152.693C679.027 145.747 682.514 142.258 689.456 142.258H734.231V109.211H703.555C696.613 109.211 693.126 105.692 693.126 98.623C693.126 91.6769 696.613 88.1885 703.555 88.1885H734.231V59.3941H696.368C689.426 59.3941 685.939 55.8752 685.939 48.8066C685.939 41.8605 689.426 38.3721 696.368 38.3721H794.696ZM794.696 7.77234H696.338C672.574 7.77234 655.324 25.0306 655.324 48.8066C655.324 60.8935 659.759 71.2974 667.191 78.6108C664.163 84.4247 662.512 91.1873 662.512 98.5924C662.512 105.661 664.041 112.179 666.793 117.84C655.477 124.908 648.412 137.454 648.412 152.662C648.412 176.53 665.662 193.849 689.426 193.849H745.639H802.006C825.769 193.849 843.019 176.53 843.019 152.662C843.019 137.699 836.198 125.337 825.219 118.207C828.094 112.485 829.684 105.845 829.684 98.623C829.684 90.8813 827.849 83.8433 824.576 77.8764C831.58 70.5936 835.678 60.4957 835.678 48.8372C835.709 25.0306 818.46 7.77234 794.696 7.77234Z" fill="#173551"/>
<path d="M101.356 167.534C97.2574 167.534 93.8626 166.187 91.2018 163.556C88.6021 160.955 87.2258 157.436 87.2258 153.397V102.938C87.0729 102.907 86.8894 102.846 86.7059 102.815C86.7059 103.06 86.7365 103.335 86.7365 103.611C86.7365 108.629 84.8097 112.362 81.3843 114.382C81.9654 114.81 82.5159 115.269 83.0358 115.789C85.6355 118.39 87.0118 121.909 87.0118 125.949V152.54C87.0118 156.64 85.6661 160.037 83.0358 162.699C80.4362 165.3 76.919 166.677 72.8819 166.677H46.6102C42.512 166.677 39.1171 165.33 36.4563 162.699C33.7955 160.037 32.4804 156.64 32.4804 152.54V125.949C32.4804 121.909 33.8567 118.421 36.4563 115.789C37.0068 115.239 37.5574 114.749 38.169 114.321C34.8048 112.271 32.9086 108.568 32.9086 103.611C32.9086 99.082 34.4684 95.5936 37.3127 93.4823C34.4684 91.3403 32.9086 87.8825 32.9086 83.3537C32.9086 80.049 33.7343 77.3256 35.2635 75.2448C29.3914 73.9596 25.9966 69.4615 25.9966 62.6071C25.9966 55.7222 29.5137 51.224 35.5388 50.0918C34.1014 48.0416 33.3368 45.3795 33.3368 42.1971C33.3368 34.3635 38.0161 29.6818 45.8456 29.6818H73.8912C81.7207 29.6818 86.4001 34.3635 86.4001 42.1971C86.4001 45.869 85.3602 48.8678 83.464 51.0098C84.9932 51.683 86.3695 52.601 87.5623 53.7944C87.8681 54.1004 88.174 54.437 88.4492 54.7736C91.2629 49.235 93.7402 43.5435 95.8811 37.8213C97.2574 33.3844 99.6736 30.202 102.946 28.6108C104.659 27.7846 106.586 27.3562 108.757 27.3562C110.531 27.3562 112.519 27.6622 114.629 28.2436C119.461 29.5594 122.795 31.9768 124.538 35.3733C126.282 38.8005 126.251 42.9315 124.447 47.6438C123.499 49.8776 122.581 51.9584 121.694 53.9168H122.826C124.722 49.2656 126.312 44.9817 127.566 41.1873C128.912 36.6279 131.175 33.262 134.264 31.3342C136.313 30.049 138.76 29.3758 141.574 29.3758C143.042 29.3758 144.602 29.5594 146.284 29.9266C151.452 31.0894 154.908 33.4762 156.652 37.0257C158.487 40.8201 158.089 45.5325 155.489 51.071L154.083 53.9168H156.193C165.032 53.9168 170.323 59.2105 170.323 68.0539C170.323 76.8972 165.032 82.191 156.193 82.191H149.189V82.4052H153.104C161.851 82.4052 167.081 87.6377 167.081 96.3892C167.081 104.284 162.921 109.333 155.826 110.343C162.921 111.353 167.081 116.34 167.081 124.143C167.081 132.987 161.851 138.28 153.104 138.28H149.189V138.647H158.854C167.876 138.647 173.289 144.033 173.289 153.091C173.289 162.148 167.907 167.534 158.854 167.534H101.356ZM59.9143 140.851V137.546H59.272V140.851H59.9143ZM120.257 138.647V138.311H116.067V138.678L120.257 138.647ZM120.257 82.4052V82.191H116.067V82.4052H120.257Z" fill="white"/>
<path d="M108.726 31.9462C110.103 31.9462 111.662 32.191 113.375 32.65C120.532 34.6083 122.764 39.0759 120.134 46.022C118.085 50.8262 116.158 54.9878 114.415 58.5067H125.853C128.3 52.6316 130.319 47.3378 131.879 42.6561C132.949 39.0453 134.539 36.5667 136.65 35.2509C137.965 34.4247 139.586 33.9963 141.513 33.9963C142.644 33.9963 143.898 34.1493 145.244 34.4247C153.073 36.1995 155.092 41.0955 151.269 49.1126C149.709 52.2338 148.149 55.3856 146.559 58.5067H156.101C162.463 58.5067 165.643 61.6891 165.643 68.0539C165.643 74.4186 162.463 77.601 156.101 77.601H144.51V86.9951H153.012C159.282 86.9951 162.401 90.1163 162.401 96.3892C162.401 102.754 159.282 105.936 153.012 105.936H144.51V114.749H153.012C159.282 114.749 162.401 117.87 162.401 124.143C162.401 130.508 159.282 133.69 153.012 133.69H144.51V143.237H158.762C165.307 143.237 168.61 146.512 168.61 153.091C168.61 159.67 165.337 162.944 158.762 162.944H139.983H101.356C98.5113 162.944 96.2175 162.056 94.4436 160.312C92.6698 158.537 91.8134 156.242 91.8134 153.397V95.2264C91.6299 95.41 91.2629 95.7772 90.7736 96.328C90.2842 96.8788 89.8866 97.2766 89.6114 97.5826C89.122 98.164 88.6633 98.47 88.2657 98.47C87.8681 98.47 87.4705 98.164 87.1341 97.5826C86.8282 97.1848 86.4612 96.6034 85.9719 95.8078C84.4121 93.3599 83.1276 91.4933 82.1489 90.2387V91.2791H45.448C40.157 91.2791 37.5267 88.6475 37.5267 83.3537C37.5267 78.06 40.157 75.4284 45.448 75.4284H81.4148C82.4853 73.9596 83.5251 72.4908 84.5038 71.022H38.8113C33.3367 71.022 30.5842 68.2375 30.5842 62.6377C30.5842 57.1604 33.3367 54.4064 38.8113 54.4064H77.4083C80.2526 54.4064 82.5465 55.2938 84.3203 57.038C86.0942 58.8127 86.9506 61.1077 86.9506 63.9535V67.0441C92.2416 58.1395 96.6457 48.929 100.163 39.4431C101.233 36.0159 102.824 33.7821 104.934 32.7724C106.004 32.191 107.289 31.9462 108.726 31.9462ZM111.479 86.9951H118.085H124.844V77.601H111.479V86.9951ZM111.479 114.749H118.085H124.844V105.936H111.479V114.749ZM114.996 143.268H124.844V133.721H118.085H111.479V139.749C111.479 142.075 112.641 143.268 114.996 143.268ZM73.8912 34.2717C79.1822 34.2717 81.8124 36.9033 81.8124 42.1971C81.8124 47.4908 79.1822 50.1224 73.8912 50.1224H45.8456C40.5546 50.1224 37.9243 47.4908 37.9243 42.1971C37.9243 36.9033 40.5546 34.2717 45.8456 34.2717H59.7919H73.8912ZM74.197 95.6548C79.488 95.6548 82.1183 98.2864 82.1183 103.58C82.1183 108.874 79.488 111.506 74.197 111.506H45.4174C40.1264 111.506 37.4961 108.874 37.4961 103.58C37.4961 98.2864 40.1264 95.6548 45.4174 95.6548H59.7919H74.197ZM72.8513 116.371C75.6956 116.371 77.9894 117.258 79.7633 119.002C81.5372 120.747 82.3935 123.072 82.3935 125.918V152.509C82.3935 155.355 81.5066 157.65 79.7633 159.425C78.02 161.199 75.6956 162.056 72.8513 162.056H46.5796C43.7353 162.056 41.4415 161.169 39.6676 159.425C37.8937 157.681 37.0374 155.355 37.0374 152.509V125.918C37.0374 123.072 37.9243 120.777 39.6676 119.002C41.4109 117.228 43.7353 116.371 46.5796 116.371H59.639H72.8513ZM58.171 145.471H60.9541C63.3091 145.471 64.4713 144.308 64.4713 141.952V139.321V135.649C64.4713 133.874 63.5843 133.017 61.841 133.017H58.171C55.816 133.017 54.6538 134.18 54.6538 136.536V141.983C54.6538 144.278 55.8466 145.471 58.171 145.471ZM108.726 22.7662C105.882 22.7662 103.252 23.3476 100.927 24.4798C96.5539 26.6218 93.3732 30.6304 91.5076 36.4137C91.2323 37.1175 90.9877 37.8213 90.7124 38.5251C89.3055 30.2632 83.0052 25.0918 73.9218 25.0918H59.8225H45.8762C35.4776 25.0918 28.7797 31.8238 28.7797 42.1971C28.7797 44.0943 28.9938 45.8384 29.422 47.4908C24.3756 50.3366 21.4089 55.661 21.4089 62.6071C21.4089 69.4614 24.2227 74.7552 29.0549 77.6622C28.5656 79.3758 28.3209 81.273 28.3209 83.3231C28.3209 87.3011 29.2996 90.7283 31.1041 93.4517C29.2996 96.175 28.3209 99.6022 28.3209 103.58C28.3209 107.895 29.4831 111.567 31.5628 114.412C29.1467 117.625 27.8622 121.542 27.8622 125.918V152.509C27.8622 157.772 29.6972 162.423 33.1838 165.912C36.6704 169.4 41.2886 171.236 46.5796 171.236H72.8513C78.1118 171.236 82.7605 169.4 86.2471 165.912C86.4 165.759 86.553 165.575 86.7059 165.422C87.1035 165.881 87.5011 166.34 87.9292 166.799C91.4158 170.288 96.0646 172.124 101.325 172.124H139.922H158.701C170.262 172.124 177.724 164.657 177.724 153.091C177.724 145.043 174.115 138.984 167.998 136.047C170.292 132.956 171.546 128.917 171.546 124.174C171.546 118.36 169.619 113.586 166.194 110.343C169.619 107.069 171.546 102.264 171.546 96.4198C171.546 91.2179 170.017 86.8727 167.234 83.6903C172.005 80.508 174.757 75.0306 174.757 68.0539C174.757 58.3537 169.436 51.5912 160.842 49.8164C162.799 44.2779 162.738 39.3207 160.658 35.0367C159.037 31.7014 155.367 27.295 147.201 25.459C145.152 25 143.256 24.7858 141.451 24.7858C137.781 24.7858 134.509 25.6732 131.726 27.448C130.105 28.4578 128.637 29.7736 127.383 31.3342C124.905 27.754 120.991 25.2448 115.761 23.8066C113.314 23.1028 110.928 22.7662 108.726 22.7662Z" fill="white"/>
<path d="M281.037 172.093C266.846 172.093 255.469 170.777 247.242 168.207C239.137 165.759 232.133 161.689 226.353 156.089C223.723 159.884 220.725 163.372 217.422 166.554C213.844 169.737 210.357 171.359 206.932 171.42C203.231 171.42 199.806 169.829 196.533 166.677C192.252 162.515 190.294 158.262 190.753 154.07C191.181 150.184 193.628 146.512 198.215 142.809C203.292 137.301 207.177 130.416 209.746 122.307C210.449 119.461 211.611 116.952 213.202 114.933H206.014C197.359 114.933 192.19 109.7 192.19 100.949C192.19 92.2888 197.359 87.1175 206.014 87.1175H208.186C205.953 84.5777 204.791 81.3341 204.791 77.6009V43.9718C204.791 39.9326 206.167 36.4443 208.767 33.8127C211.428 31.1505 214.823 29.8347 218.921 29.8347H303.333C307.37 29.8347 310.857 31.2117 313.487 33.8127C316.086 36.4137 317.463 39.9326 317.463 43.9718V77.6009C317.463 81.3035 316.3 84.5777 314.068 87.1175H316.545C325.2 87.1175 330.369 92.2888 330.369 100.949C330.369 109.7 325.2 114.933 316.545 114.933H313.976C318.533 116.952 321.133 121.297 321.133 127.387C321.133 136.046 316.025 141.218 307.431 141.218H278.101V142.931C279.997 143.023 281.343 143.054 282.322 143.054C284.004 143.084 286.328 143.115 289.356 143.115C295.442 143.115 304.373 143.054 316.178 142.931H317.065C323.151 142.931 327.097 144.125 329.543 146.726C332.479 150 332.816 154.743 330.675 160.924C329.36 164.841 327.188 167.778 324.191 169.645C321.439 171.297 318.074 172.093 313.854 172.093H281.037ZM239.596 127.846C241.614 131.426 244.306 134.302 247.67 136.505V114.963H238.342C238.372 115.024 238.433 115.086 238.464 115.147C240.544 118.268 240.972 122.277 239.749 127.081C239.718 127.295 239.657 127.57 239.596 127.846Z" fill="white"/>
<path d="M303.333 34.4247C306.177 34.4247 308.471 35.3121 310.245 37.0563C312.019 38.831 312.875 41.126 312.875 43.9718V77.6009C312.875 80.4467 311.988 82.7417 310.245 84.5165C308.471 86.2913 306.177 87.1481 303.333 87.1481H218.921C216.076 87.1481 213.783 86.2607 212.009 84.5165C210.235 82.7417 209.378 80.4467 209.378 77.6009V43.9718C209.378 41.126 210.265 38.831 212.009 37.0563C213.783 35.2815 216.076 34.4247 218.921 34.4247H261.066H303.333ZM229.809 53.9473H260.637H291.466V49.1126H233.326C230.971 49.1126 229.809 50.2754 229.809 52.6315V53.9473ZM231.705 72.4602H260.637H291.466V67.6254H229.809V70.563C229.809 71.8176 230.42 72.4602 231.705 72.4602ZM316.545 91.7074C322.723 91.7074 325.781 94.798 325.781 100.949C325.781 107.221 322.692 110.343 316.545 110.343H273.544V118.268H307.462C313.517 118.268 316.576 121.297 316.576 127.387C316.576 133.568 313.548 136.628 307.462 136.628H273.544V147.491C274.431 147.491 275.838 147.491 277.795 147.491C279.752 147.583 281.282 147.644 282.352 147.644C283.973 147.674 286.297 147.705 289.386 147.705C295.473 147.705 304.434 147.644 316.27 147.521C316.545 147.521 316.82 147.521 317.095 147.521C321.714 147.521 324.772 148.317 326.24 149.878C327.892 151.744 327.953 154.926 326.393 159.425C325.414 162.362 323.885 164.474 321.836 165.728C319.879 166.891 317.248 167.503 313.915 167.503H281.037C267.243 167.503 256.417 166.279 248.587 163.831C239.198 160.985 231.552 155.906 225.68 148.562C222.56 154.039 218.737 158.935 214.241 163.25C211.611 165.606 209.134 166.799 206.84 166.86C206.809 166.86 206.748 166.86 206.687 166.86C204.424 166.86 202.099 165.698 199.714 163.403C196.472 160.281 195.004 157.344 195.31 154.59C195.616 151.958 197.604 149.143 201.335 146.206C207.024 140.147 211.275 132.65 214.119 123.745C215.006 120.226 216.505 117.625 218.676 115.973C220.542 114.504 222.713 113.77 225.19 113.77C225.833 113.77 226.506 113.831 227.209 113.923C234.549 114.902 237.241 119.002 235.283 126.255C235.283 126.438 235.222 126.775 235.069 127.203C234.916 127.632 234.794 127.999 234.702 128.305C238.311 135.74 244.183 140.942 252.318 143.88V110.343H206.014C199.836 110.343 196.778 107.221 196.778 100.949C196.778 94.7674 199.867 91.7074 206.014 91.7074H261.218H316.545ZM303.333 25.2448H261.066H218.921C213.66 25.2448 209.011 27.0807 205.525 30.5691C202.038 34.0575 200.203 38.7086 200.203 43.9718V77.6009C200.203 79.5287 200.448 81.3341 200.937 83.0783C192.68 84.9449 187.603 91.5544 187.603 100.949C187.603 112.148 194.729 119.4 205.77 119.523C205.586 120.043 205.433 120.594 205.28 121.175C202.956 128.397 199.5 134.547 195.035 139.474C189.652 143.88 186.746 148.501 186.165 153.55C185.554 159.272 187.939 164.78 193.291 169.951C197.481 173.96 201.977 175.979 206.657 175.979H206.748H206.993C211.519 175.887 216.015 173.898 220.297 170.073L220.419 169.951L220.542 169.829C222.835 167.625 225.007 165.269 226.995 162.791C232.469 167.166 238.77 170.441 245.896 172.583C254.612 175.306 266.142 176.652 281.006 176.652H313.884C318.9 176.652 323.151 175.612 326.546 173.592C330.583 171.114 333.397 167.319 335.079 162.301C337.77 154.529 337.128 148.256 333.06 143.727L332.969 143.635L332.877 143.543C330.002 140.483 326.118 139.168 322.478 138.647C324.558 135.649 325.69 131.824 325.69 127.356C325.69 123.929 325.017 120.9 323.763 118.329C330.736 115.851 334.957 109.547 334.957 100.918C334.957 91.432 329.757 84.7613 321.347 82.9865C321.805 81.2729 322.05 79.4675 322.05 77.5703V43.9718C322.05 38.7086 320.215 34.0575 316.728 30.5691C313.242 27.0807 308.624 25.2448 303.333 25.2448Z" fill="white"/>
<path d="M368.813 166.218C364.715 166.218 361.32 164.871 358.659 162.24C356.06 159.639 354.683 156.12 354.683 152.081V43.9718C354.683 39.9326 356.06 36.4443 358.659 33.8127C361.32 31.1505 364.715 29.8347 368.813 29.8347H476.408C480.445 29.8347 483.932 31.2117 486.562 33.8127C489.161 36.4137 490.538 39.9326 490.538 43.9718V152.081C490.538 156.12 489.161 159.639 486.562 162.24C483.962 164.841 480.445 166.218 476.408 166.218H368.813ZM458.18 137.209V60.8935H385.879V137.209H458.18ZM400.835 132.711C396.736 132.711 393.342 131.365 390.681 128.733C388.081 126.132 386.705 122.613 386.705 118.574V79.9571C386.705 75.9179 388.081 72.399 390.681 69.798C393.311 67.1664 396.736 65.82 400.835 65.82H443.102C447.139 65.82 450.626 67.197 453.256 69.798C455.855 72.399 457.232 75.9179 457.232 79.9571V118.574C457.232 122.613 455.855 126.102 453.256 128.733C450.656 131.334 447.139 132.711 443.102 132.711H400.835ZM426.77 105.171V93.5128H415.851V105.171H426.77Z" fill="white"/>
<path d="M476.438 34.4247C479.283 34.4247 481.576 35.3121 483.35 37.0563C485.124 38.831 485.981 41.126 485.981 43.9718V152.081C485.981 154.926 485.094 157.221 483.35 158.996C481.576 160.771 479.283 161.628 476.438 161.628H368.844C365.999 161.628 363.706 160.74 361.932 158.996C360.158 157.221 359.302 154.926 359.302 152.081V43.9718C359.302 41.126 360.188 38.831 361.932 37.0563C363.706 35.2815 365.999 34.4247 368.844 34.4247H422.58H476.438ZM381.291 141.799H462.767V56.3035H421.968H381.291V141.799ZM443.102 70.41C445.946 70.41 448.24 71.2974 450.014 73.0416C451.788 74.8163 452.644 77.1113 452.644 79.9571V118.574C452.644 121.42 451.757 123.715 450.014 125.49C448.24 127.264 445.946 128.121 443.102 128.121H421.968H400.835C397.99 128.121 395.697 127.234 393.923 125.49C392.149 123.715 391.292 121.42 391.292 118.574V79.9571C391.292 77.1113 392.179 74.8163 393.923 73.0416C395.697 71.2668 397.99 70.41 400.835 70.41H443.102ZM414.781 109.761H427.84C430.195 109.761 431.357 108.598 431.357 106.242V92.4418C431.357 90.0856 430.195 88.9228 427.84 88.9228H414.781C412.426 88.9228 411.264 90.0856 411.264 92.4418V99.3574V106.273C411.233 108.598 412.426 109.761 414.781 109.761ZM476.438 25.2448H422.549H368.813C363.553 25.2448 358.904 27.0807 355.417 30.5691C351.931 34.0575 350.096 38.7086 350.096 43.9718V152.081C350.096 157.344 351.931 161.995 355.417 165.483C358.904 168.972 363.522 170.808 368.813 170.808H476.408C481.668 170.808 486.317 168.972 489.804 165.483C493.29 161.995 495.125 157.374 495.125 152.081V43.9718C495.125 38.7086 493.29 34.0575 489.804 30.5691C486.317 27.0807 481.699 25.2448 476.438 25.2448ZM420.408 98.1028H422.182V100.612H420.408V99.3574V98.1028Z" fill="white"/>
<path d="M593.575 173.99C584.645 173.99 579.293 168.696 579.293 159.853V145.165C576.999 147.368 573.726 148.562 569.628 148.562H563.939V159.394C563.939 168.329 558.587 173.684 549.657 173.684C540.634 173.684 535.221 168.329 535.221 159.394V148.562H528.217C519.837 148.562 514.821 143.482 514.821 135.006C514.821 127.723 518.614 122.98 525.098 121.848C517.972 121.053 513.782 116.157 513.782 108.415C513.782 101.928 516.779 97.4296 522.039 95.7466C521.642 94.2472 521.183 92.8396 520.694 91.5238C520.388 90.5446 520.235 89.6878 520.174 88.8616C513.904 87.607 510.264 82.8641 510.264 75.6425C510.264 67.962 514.454 63.1272 521.58 62.3622C517.605 60.2814 515.403 56.1505 515.403 50.5507C515.403 42.2582 520.357 37.301 528.645 37.301H535.435C536.536 30.1713 541.674 25.9791 549.657 25.9791C557.547 25.9791 562.655 30.1407 563.725 37.301H568.313C573.482 37.301 577.335 39.1982 579.507 42.656C579.996 39.7796 581.281 37.2704 583.269 35.2815C585.929 32.6193 589.324 31.3035 593.422 31.3035H637.463C641.501 31.3035 644.987 32.6805 647.617 35.2815C650.248 37.8824 651.593 41.4014 651.593 45.4406V63.372C651.593 68.574 650.951 72.5826 649.605 75.6425C648.26 78.5189 646.241 80.8445 643.58 82.5887C647.312 83.3537 649.605 85.3426 650.92 87.0868C653.184 90.0856 654.009 94.1554 653.367 99.1737C650.768 113.862 646.914 126.714 641.868 137.515C643.703 139.351 645.354 140.851 646.792 142.013C651.685 145.226 654.468 148.623 655.325 152.356C656.364 156.365 655.019 160.74 651.318 165.269C648.199 169.064 644.712 171.053 640.919 171.206C637.463 171.206 633.977 169.798 630.093 166.922L629.787 166.677C628.411 165.453 627.065 164.168 625.719 162.852C624.435 164.321 623.12 165.698 621.743 166.983C618.93 169.523 615.871 170.777 612.629 170.777C612.293 170.777 611.926 170.777 611.589 170.747C609.326 170.563 607.216 169.767 605.35 168.421C602.995 172.032 598.928 173.99 593.575 173.99ZM607.552 139.351C607.736 139.137 607.889 138.923 608.072 138.709C607.889 138.372 607.736 138.066 607.552 137.729V139.351ZM572.931 121.909C575.531 122.368 577.672 123.439 579.323 125V119.767C577.549 120.961 575.408 121.665 572.931 121.909ZM577.427 96.2362C578.1 96.5116 578.712 96.8482 579.293 97.246V91.9828C579.17 92.2888 579.017 92.656 578.864 92.9926C578.375 94.0942 578.069 94.7674 577.855 95.1958C577.733 95.5324 577.58 95.869 577.427 96.2362ZM551.216 95.0428C551.828 93.2374 552.44 91.3096 553.052 89.2288H547.026C547.179 89.7184 547.332 90.1774 547.485 90.667C547.791 91.5544 548.158 92.9926 548.586 94.951C548.586 94.9816 548.586 95.0122 548.586 95.0428H551.216ZM610.305 82.2521C608.959 80.7221 608.103 79.0697 607.552 77.6621V82.2521H610.305ZM607.552 66.585C607.766 66.1566 608.042 65.7588 608.317 65.361C610.764 61.995 615.076 60.3732 621.468 60.3732H622.905V58.9963H607.583L607.552 66.585ZM575.408 62.3928C576.815 62.5458 578.13 62.8518 579.293 63.2802V58.9351C578.314 60.3732 576.999 61.536 575.408 62.3928Z" fill="white"/>
<path d="M549.687 30.5997C556.14 30.5997 559.382 33.8433 559.382 40.2998V41.9216H568.343C574.124 41.9216 576.999 44.798 576.999 50.5814C576.999 56.4565 574.124 59.3941 568.343 59.3941H559.382V66.891H573.482C579.354 66.891 582.29 69.8286 582.29 75.7038C582.29 81.6707 579.354 84.6695 573.482 84.6695H572.166L574.95 85.4039C576.234 85.7099 576.601 86.4443 576.112 87.6071C575.806 88.4027 575.317 89.6266 574.644 91.279C574.246 92.1664 573.971 92.809 573.757 93.1762C573.084 94.7368 572.136 96.9094 570.974 99.6328H571.28C577.06 99.6328 579.935 102.57 579.935 108.445C579.935 114.412 576.999 117.411 571.127 117.411H559.382V126.224H569.659C575.531 126.224 578.467 129.162 578.467 135.037C578.467 141.004 575.531 144.002 569.659 144.002H559.382V159.425C559.382 165.881 556.14 169.125 549.687 169.125C543.142 169.125 539.839 165.881 539.839 159.425V144.002H528.248C522.376 144.002 519.44 141.004 519.44 135.037C519.44 129.162 522.376 126.224 528.248 126.224H539.839V117.411H527.208C521.336 117.411 518.4 114.412 518.4 108.445C518.4 102.57 521.336 99.6328 527.208 99.6328H527.636C526.963 96.022 526.076 92.7784 525.006 89.9326C524.608 88.6475 524.669 87.5459 525.159 86.6279C525.648 85.7099 526.535 85.0979 527.789 84.7919L528.217 84.6389H523.66C517.788 84.6389 514.852 81.6401 514.852 75.6732C514.852 69.798 517.788 66.8604 523.66 66.8604H539.809V59.3635H528.645C522.865 59.3635 519.99 56.4259 519.99 50.5508C519.99 44.7674 522.865 41.891 528.645 41.891H539.809V40.2692C539.839 33.8433 543.112 30.5997 549.687 30.5997ZM559.077 84.6389H540.42C541.399 86.9033 542.286 89.3512 543.05 91.9828C543.356 92.8702 543.693 94.186 544.09 95.9608C544.396 97.6132 543.662 98.7148 541.888 99.2044L540.267 99.6328H559.046L556.538 98.8984C555.254 98.5924 554.886 97.9804 555.376 97.0012C556.691 93.3598 557.914 89.2594 559.077 84.6389ZM637.463 35.8935C640.308 35.8935 642.602 36.7809 644.375 38.5251C646.149 40.2692 647.006 42.5948 647.006 45.4406V63.3721C647.006 67.8702 646.455 71.3586 645.385 73.8066C644.1 76.5606 641.898 78.6107 638.779 79.9877C635.353 81.5483 630.521 82.4969 624.251 82.7723C624.006 82.7723 623.731 82.7723 623.487 82.7723C617.094 82.7723 613.119 80.3243 611.62 75.4284C609.418 68.4822 612.721 64.9938 621.468 64.9938C621.713 64.9938 621.957 64.9938 622.202 64.9938C622.997 64.9938 623.762 64.9938 624.557 64.9938C625.719 64.902 626.514 64.7184 626.912 64.4736C627.31 64.2289 627.493 63.7087 627.493 62.9437V57.9559C627.493 55.5997 626.331 54.4369 623.976 54.4369H606.512C604.157 54.4369 602.995 55.5997 602.995 57.9559V86.9033H640.277C643.397 86.9033 645.721 87.9131 647.25 89.902C648.78 91.9216 649.269 94.8286 648.78 98.6536C646.027 114.137 641.868 127.387 636.301 138.464C639.237 141.585 641.837 144.033 644.07 145.808C647.984 148.348 650.248 150.887 650.829 153.458C651.502 156.089 650.492 159.088 647.74 162.423C645.476 165.177 643.152 166.585 640.705 166.677C638.442 166.677 635.812 165.545 632.784 163.311C630.246 161.046 627.799 158.598 625.444 155.967C623.303 158.813 620.979 161.414 618.532 163.739C616.666 165.422 614.678 166.279 612.599 166.279C612.385 166.279 612.17 166.279 611.926 166.248C609.571 166.065 607.583 164.871 605.901 162.729C604.922 161.75 603.943 160.771 602.965 159.792V160.098C602.965 166.371 599.845 169.492 593.575 169.492C587.122 169.492 583.88 166.31 583.88 159.945V45.4406C583.88 42.5948 584.767 40.2998 586.51 38.5251C588.284 36.7503 590.578 35.8935 593.422 35.8935H615.443H637.463ZM628.808 103.611H616.33C617.492 106.946 618.593 109.792 619.572 112.117C620.856 115.147 622.171 117.901 623.548 120.349C625.78 115.055 627.524 109.486 628.808 103.611ZM603.821 149.725C604.219 149.725 604.769 149.388 605.473 148.684C608.5 145.441 611.192 142.258 613.547 139.137C609.54 131.977 606.023 124.021 602.965 115.208V133.262V147.644C602.965 149.051 603.24 149.725 603.821 149.725ZM549.687 21.4198C540.94 21.4198 534.517 25.6732 531.948 32.7417H528.707C517.88 32.7417 510.876 39.7491 510.876 50.5814C510.876 54.4063 511.732 57.7417 513.292 60.4651C508.521 63.4945 505.738 68.8188 505.738 75.7038C505.738 83.9351 509.683 89.9938 516.228 92.5336C516.228 92.5642 516.259 92.6254 516.259 92.656L516.351 92.9314L516.442 93.2068C516.473 93.268 516.503 93.3598 516.534 93.421C511.916 96.481 509.255 101.744 509.255 108.476C509.255 114.382 511.274 119.155 514.821 122.338C511.916 125.459 510.264 129.804 510.264 135.067C510.264 146.083 517.329 153.213 528.248 153.213H530.664V159.455C530.664 170.93 538.126 178.335 549.687 178.335C561.156 178.335 568.558 170.93 568.558 159.455V153.213H569.659C571.463 153.213 573.145 153.029 574.736 152.662V159.914C574.736 171.297 582.137 178.641 593.606 178.641C598.836 178.641 603.209 177.081 606.39 174.266C607.919 174.847 609.51 175.245 611.192 175.367C611.681 175.398 612.14 175.428 612.629 175.428C617.003 175.428 621.193 173.745 624.74 170.532L624.832 170.441L624.924 170.349C625.26 170.043 625.566 169.737 625.903 169.4C626.178 169.645 626.453 169.92 626.759 170.165L627.065 170.441L627.371 170.685C632.081 174.174 636.454 175.857 640.767 175.857H640.95H641.134C644.681 175.704 649.942 174.266 654.896 168.268C660.677 161.23 660.768 155.171 659.79 151.285C658.628 146.45 655.263 142.228 649.514 138.372C648.841 137.852 648.137 137.24 647.373 136.536C651.93 126.01 655.447 113.862 657.863 100.275L657.894 100.061L657.924 99.847C658.719 93.574 657.618 88.4027 654.591 84.3941C653.826 83.3843 652.847 82.3133 651.593 81.3341C652.419 80.2019 653.153 78.9779 653.765 77.6927L653.795 77.6009L653.826 77.5091C655.447 73.8372 656.211 69.2166 656.211 63.3721V45.4406C656.211 40.1774 654.376 35.5263 650.89 32.0379C647.403 28.5495 642.785 26.7136 637.494 26.7136H615.474H593.453C588.193 26.7136 583.544 28.5495 580.057 32.0379C579.17 32.9253 578.406 33.8739 577.733 34.9143C575.103 33.5067 571.922 32.7417 568.343 32.7417H567.304C564.735 25.6732 558.373 21.4198 549.687 21.4198Z" fill="white"/>
<path d="M689.426 167.809C679.883 167.809 674.409 162.271 674.409 152.632C674.409 143.084 679.883 137.607 689.426 137.607H729.613V113.739H703.525C693.983 113.739 688.508 108.201 688.508 98.5618C688.508 89.0147 693.983 83.5373 703.525 83.5373H729.613V63.9229H696.338C686.795 63.9229 681.321 58.3843 681.321 48.7454C681.321 39.1983 686.795 33.7209 696.338 33.7209H794.696C804.238 33.7209 809.713 39.1983 809.713 48.7454C809.713 58.3843 804.238 63.9229 794.696 63.9229H761.115V83.5373H788.671C798.213 83.5373 803.688 89.0147 803.688 98.5618C803.688 108.201 798.213 113.739 788.671 113.739H761.115V137.607H802.036C811.578 137.607 817.053 143.084 817.053 152.632C817.053 162.271 811.578 167.809 802.036 167.809H689.426Z" fill="white"/>
<path d="M794.696 38.3721C801.639 38.3721 805.125 41.8604 805.125 48.8066C805.125 55.8445 801.639 59.3941 794.696 59.3941H756.527V88.1885H788.671C795.613 88.1885 799.1 91.6768 799.1 98.623C799.1 105.661 795.613 109.21 788.671 109.21H756.527V142.258H802.036C808.979 142.258 812.465 145.747 812.465 152.693C812.465 159.731 808.979 163.28 802.036 163.28H745.67H689.456C682.514 163.28 679.027 159.761 679.027 152.693C679.027 145.747 682.514 142.258 689.456 142.258H734.231V109.21H703.555C696.613 109.21 693.126 105.692 693.126 98.623C693.126 91.6768 696.613 88.1885 703.555 88.1885H734.231V59.3941H696.368C689.426 59.3941 685.939 55.8751 685.939 48.8066C685.939 41.8604 689.426 38.3721 696.368 38.3721H794.696ZM794.696 29.1921H696.338C684.257 29.1921 676.733 36.7197 676.733 48.8066C676.733 60.9853 684.257 68.574 696.338 68.574H725.026V79.0085H703.525C691.444 79.0085 683.921 86.5361 683.921 98.623C683.921 110.802 691.444 118.39 703.525 118.39H725.026V133.078H689.426C677.345 133.078 669.821 140.606 669.821 152.693C669.821 164.871 677.345 172.46 689.426 172.46H745.639H802.006C814.086 172.46 821.61 164.902 821.61 152.693C821.61 140.606 814.086 133.078 802.006 133.078H765.672V118.39H788.64C800.721 118.39 808.245 110.832 808.245 98.623C808.245 86.5361 800.721 79.0085 788.64 79.0085H765.672V68.574H794.665C806.746 68.574 814.27 61.0159 814.27 48.8066C814.3 36.7197 806.777 29.1921 794.696 29.1921Z" fill="white"/>
<path d="M101.355 162.944C98.5112 162.944 96.2174 162.056 94.4435 160.312C92.6696 158.537 91.8133 156.242 91.8133 153.397V95.2265C91.6297 95.4101 91.2627 95.7773 90.7734 96.3281C90.284 96.8789 89.8865 97.2766 89.6112 97.5826C88.6325 98.7454 87.8067 98.7454 87.1033 97.5826C86.7975 97.1848 86.4305 96.6035 85.9411 95.8079C84.3813 93.3599 83.0968 91.4933 82.1181 90.2387V91.2791H45.4172C40.1262 91.2791 37.496 88.6475 37.496 83.3538C37.496 78.06 40.1262 75.4284 45.4172 75.4284H81.3841C82.4545 73.9596 83.4944 72.4908 84.4731 71.0221H38.8111C33.3365 71.0221 30.584 68.2375 30.584 62.6377C30.584 57.1604 33.3365 54.4064 38.8111 54.4064H77.4082C80.2525 54.4064 82.5463 55.2938 84.3202 57.038C86.094 58.8128 86.9504 61.1077 86.9504 63.9535V67.0441C92.2414 58.1396 96.6455 48.929 100.163 39.4431C101.233 36.0159 102.824 33.7822 104.934 32.7724C107.044 31.732 109.858 31.732 113.375 32.7112C120.532 34.6696 122.764 39.1371 120.134 46.0833C118.085 50.8874 116.158 55.049 114.415 58.568H125.853C128.3 52.6928 130.319 47.3991 131.878 42.7173C132.949 39.1065 134.539 36.6279 136.649 35.3122C138.76 33.9964 141.604 33.721 145.244 34.5166C153.073 36.2913 155.092 41.1873 151.269 49.2044C149.709 52.3256 148.149 55.4774 146.559 58.5986H156.101C162.462 58.5986 165.643 61.7809 165.643 68.1457C165.643 74.5104 162.462 77.6928 156.101 77.6928H144.51V87.0869H153.012C159.282 87.0869 162.401 90.2081 162.401 96.4811C162.401 102.846 159.282 106.028 153.012 106.028H144.51V114.841H153.012C159.282 114.841 162.401 117.962 162.401 124.235C162.401 130.6 159.282 133.782 153.012 133.782H144.51V143.329H158.762C165.307 143.329 168.61 146.603 168.61 153.182C168.61 159.761 165.337 163.036 158.762 163.036H139.983H101.355V162.944ZM46.5794 162.056C43.7351 162.056 41.4413 161.169 39.6674 159.425C37.8936 157.681 37.0372 155.355 37.0372 152.509V125.918C37.0372 123.072 37.9242 120.777 39.6674 119.002C41.4107 117.228 43.7351 116.371 46.5794 116.371H59.6388H72.8511C75.6955 116.371 77.9893 117.258 79.7631 119.002C81.537 120.747 82.3934 123.072 82.3934 125.918V152.509C82.3934 155.355 81.5064 157.65 79.7631 159.425C78.0198 161.2 75.6955 162.056 72.8511 162.056H46.5794ZM45.4172 111.536C40.1262 111.536 37.496 108.905 37.496 103.611C37.496 98.317 40.1262 95.6855 45.4172 95.6855H59.7917H74.1663C79.4573 95.6855 82.0875 98.317 82.0875 103.611C82.0875 108.905 79.4573 111.536 74.1663 111.536H45.4172ZM45.8454 50.1224C40.5544 50.1224 37.9242 47.4909 37.9242 42.1971C37.9242 36.9033 40.5544 34.2718 45.8454 34.2718H59.7917H73.891C79.182 34.2718 81.8123 36.9033 81.8123 42.1971C81.8123 47.4909 79.182 50.1224 73.891 50.1224H45.8454ZM58.1708 145.471H60.9539C63.3089 145.471 64.4711 144.308 64.4711 141.952V139.321V135.649C64.4711 133.874 63.5842 133.017 61.8409 133.017H58.1708C55.8158 133.017 54.6536 134.18 54.6536 136.536V141.983C54.6536 144.278 55.8464 145.471 58.1708 145.471ZM111.479 86.9951H118.085H124.844V77.601H111.479V86.9951ZM111.479 114.749H118.085H124.844V105.936H111.479V114.749ZM114.996 143.268H124.844V133.721H118.085H111.479V139.749C111.479 142.075 112.641 143.268 114.996 143.268Z" fill="#173551"/>
<path d="M281.037 167.503C267.243 167.503 256.417 166.279 248.587 163.831C239.198 160.985 231.552 155.906 225.68 148.562C222.56 154.039 218.737 158.935 214.241 163.25C211.611 165.606 209.134 166.799 206.84 166.861C204.546 166.922 202.161 165.759 199.714 163.403C196.472 160.282 195.004 157.344 195.31 154.59C195.616 151.958 197.604 149.143 201.335 146.206C207.024 140.147 211.275 132.65 214.119 123.745C215.006 120.227 216.505 117.626 218.676 115.973C221.031 114.107 223.875 113.433 227.178 113.923C234.519 114.902 237.21 119.003 235.253 126.255C235.253 126.438 235.191 126.775 235.038 127.203C234.886 127.632 234.763 127.999 234.671 128.305C238.28 135.741 244.153 140.943 252.288 143.88V110.343H206.014C199.836 110.343 196.778 107.222 196.778 100.949C196.778 94.7675 199.867 91.7075 206.014 91.7075H261.218H316.576C322.754 91.7075 325.812 94.7981 325.812 100.949C325.812 107.222 322.723 110.343 316.576 110.343H273.544V118.268H307.461C313.517 118.268 316.576 121.298 316.576 127.387C316.576 133.568 313.548 136.628 307.461 136.628H273.544V147.491C274.431 147.491 275.838 147.491 277.795 147.491C279.752 147.583 281.282 147.644 282.352 147.644C287.154 147.736 298.439 147.705 316.27 147.491C321.347 147.399 324.68 148.164 326.24 149.847C327.892 151.714 327.953 154.896 326.393 159.394C325.414 162.332 323.885 164.443 321.836 165.698C319.879 166.861 317.248 167.473 313.915 167.473H281.037V167.503ZM218.921 87.1482C216.076 87.1482 213.783 86.2608 212.009 84.5166C210.235 82.7418 209.378 80.4468 209.378 77.6011V43.9719C209.378 41.1261 210.265 38.8312 212.009 37.0564C213.783 35.2816 216.076 34.4248 218.921 34.4248H261.066H303.333C306.177 34.4248 308.471 35.3122 310.245 37.0564C312.019 38.8312 312.875 41.1261 312.875 43.9719V77.6011C312.875 80.4468 311.988 82.7418 310.245 84.5166C308.471 86.2914 306.177 87.1482 303.333 87.1482H218.921ZM229.809 53.9474H260.637H291.466V49.1127H233.326C230.971 49.1127 229.809 50.2755 229.809 52.6317V53.9474ZM231.705 72.4603H260.637H291.466V67.6255H229.809V70.5631C229.809 71.8177 230.42 72.4603 231.705 72.4603Z" fill="#173551"/>
<path d="M368.813 161.628C365.969 161.628 363.675 160.741 361.901 158.996C360.127 157.222 359.271 154.927 359.271 152.081V43.9719C359.271 41.1262 360.158 38.8312 361.901 37.0564C363.675 35.2816 365.969 34.4248 368.813 34.4248H422.549H476.438C479.283 34.4248 481.576 35.3122 483.35 37.0564C485.124 38.8312 485.98 41.1262 485.98 43.9719V152.081C485.98 154.927 485.093 157.222 483.35 158.996C481.576 160.771 479.283 161.628 476.438 161.628H368.813ZM381.291 141.799H462.767V56.3036H421.968H381.291V141.799ZM400.834 128.121C397.99 128.121 395.696 127.234 393.922 125.49C392.149 123.715 391.292 121.42 391.292 118.574V79.9572C391.292 77.1115 392.179 74.8165 393.922 73.0417C395.696 71.2669 397.99 70.4101 400.834 70.4101H443.102C445.946 70.4101 448.24 71.2975 450.014 73.0417C451.787 74.8165 452.644 77.1115 452.644 79.9572V118.574C452.644 121.42 451.757 123.715 450.014 125.49C448.24 127.264 445.946 128.121 443.102 128.121H421.968H400.834ZM414.781 109.761H427.84C430.195 109.761 431.357 108.599 431.357 106.242V92.4419C431.357 90.0858 430.195 88.923 427.84 88.923H414.781C412.426 88.923 411.264 90.0858 411.264 92.4419V99.3575V106.273C411.233 108.599 412.426 109.761 414.781 109.761Z" fill="#173551"/>
<path d="M549.687 169.094C543.142 169.094 539.839 165.851 539.839 159.394V143.972H528.248C522.375 143.972 519.439 140.973 519.439 135.006C519.439 129.131 522.375 126.193 528.248 126.193H539.839V117.381H527.208C521.336 117.381 518.4 114.382 518.4 108.415C518.4 102.54 521.336 99.6022 527.208 99.6022H527.636C526.963 95.9915 526.076 92.7479 525.006 89.9021C524.608 88.6169 524.669 87.5153 525.159 86.5973C525.648 85.6793 526.535 85.0673 527.789 84.7613L528.217 84.6083H523.66C517.788 84.6083 514.852 81.6096 514.852 75.6426C514.852 69.7675 517.788 66.8299 523.66 66.8299H539.808V59.3329H528.645C522.865 59.3329 519.99 56.3954 519.99 50.5202C519.99 44.7369 522.865 41.8605 528.645 41.8605H539.808V40.2387C539.808 33.7821 543.081 30.5386 549.656 30.5386C556.11 30.5386 559.352 33.7821 559.352 40.2387V41.8605H568.313C574.093 41.8605 576.968 44.7369 576.968 50.5202C576.968 56.3954 574.093 59.3329 568.313 59.3329H559.352V66.8299H573.451C579.323 66.8299 582.259 69.7675 582.259 75.6426C582.259 81.6096 579.323 84.6083 573.451 84.6083H572.136L574.919 85.3427C576.203 85.6487 576.57 86.3831 576.081 87.5459C575.775 88.3415 575.286 89.5655 574.613 91.2179C574.215 92.1053 573.94 92.7479 573.726 93.1151C573.053 94.6757 572.105 96.8483 570.943 99.5716H571.249C577.029 99.5716 579.904 102.509 579.904 108.384C579.904 114.351 576.968 117.35 571.096 117.35H559.352V126.163H569.628C575.5 126.163 578.436 129.1 578.436 134.976C578.436 140.942 575.5 143.941 569.628 143.941H559.352V159.364C559.382 165.881 556.14 169.094 549.687 169.094ZM540.298 99.6328H559.076L556.568 98.8984C555.284 98.5924 554.917 97.9804 555.406 97.0013C556.691 93.3905 557.914 89.2595 559.076 84.6695H540.42C541.399 86.9339 542.286 89.3819 543.05 92.0135C543.356 92.9009 543.693 94.2167 544.09 95.9915C544.396 97.6438 543.662 98.7454 541.888 99.235L540.298 99.6328ZM593.575 169.4C587.122 169.4 583.88 166.218 583.88 159.853V45.4407C583.88 42.5949 584.767 40.2999 586.51 38.5251C588.284 36.7503 590.578 35.8935 593.422 35.8935H615.443H637.463C640.308 35.8935 642.601 36.7809 644.375 38.5251C646.149 40.2693 647.006 42.5949 647.006 45.4407V63.3721C647.006 67.8703 646.455 71.3587 645.385 73.8066C644.1 76.5606 641.898 78.6108 638.778 79.9878C635.353 81.5484 630.521 82.497 624.251 82.7724C617.4 82.956 613.18 80.508 611.62 75.4284C609.357 68.2681 612.904 64.8103 622.202 64.9939C622.997 64.9939 623.762 64.9939 624.557 64.9939C625.719 64.9021 626.514 64.7185 626.912 64.4737C627.309 64.2289 627.493 63.7087 627.493 62.9437V57.956C627.493 55.5998 626.331 54.437 623.976 54.437H606.512C604.157 54.437 602.995 55.5998 602.995 57.956V86.9033H640.277C643.397 86.9033 645.721 87.9131 647.25 89.9021C648.779 91.9217 649.269 94.8287 648.779 98.6536C646.027 114.137 641.867 127.387 636.301 138.464C639.237 141.585 641.837 144.033 644.069 145.808C647.984 148.348 650.247 150.887 650.829 153.458C651.501 156.089 650.492 159.088 647.74 162.424C645.476 165.178 643.152 166.585 640.705 166.677C638.442 166.677 635.812 165.545 632.784 163.311C630.245 161.047 627.799 158.599 625.444 155.967C623.303 158.813 620.979 161.414 618.532 163.739C616.483 165.606 614.281 166.432 611.926 166.249C609.571 166.065 607.583 164.872 605.901 162.73C604.922 161.75 603.943 160.771 602.964 159.792V160.098C602.964 166.248 599.845 169.4 593.575 169.4ZM605.472 148.684C608.5 145.441 611.192 142.258 613.547 139.137C609.54 131.977 606.023 124.021 602.964 115.208V133.262V147.644C602.964 150 603.79 150.367 605.472 148.684ZM623.517 120.349C625.78 115.055 627.523 109.486 628.808 103.611H616.33C617.492 106.946 618.593 109.792 619.572 112.118C620.826 115.147 622.141 117.901 623.517 120.349Z" fill="#173551"/>
<path d="M689.426 163.219C682.483 163.219 678.996 159.7 678.996 152.632C678.996 145.685 682.483 142.197 689.426 142.197H734.201V109.149H703.525C696.582 109.149 693.096 105.63 693.096 98.5618C693.096 91.6157 696.582 88.1273 703.525 88.1273H734.201V59.3329H696.337C689.395 59.3329 685.908 55.814 685.908 48.7454C685.908 41.7993 689.395 38.3109 696.337 38.3109H794.696C801.638 38.3109 805.125 41.7993 805.125 48.7454C805.125 55.7834 801.638 59.3329 794.696 59.3329H756.527V88.1273H788.671C795.613 88.1273 799.1 91.6157 799.1 98.5618C799.1 105.6 795.613 109.149 788.671 109.149H756.527V142.197H802.036C808.979 142.197 812.465 145.685 812.465 152.632C812.465 159.67 808.979 163.219 802.036 163.219H745.67H689.426Z" fill="#173551"/>
</g>
<defs>
<clipPath id="clip0_287_1219">
<rect width="843.049" height="200" fill="white"/>
</clipPath>
</defs>
</svg>
