<svg width="110" height="110" viewBox="0 0 110 110" fill="none" xmlns="http://www.w3.org/2000/svg">
<path d="M110 55C110 85.3757 85.3757 110 55 110C24.6243 110 0 85.3757 0 55C0 24.6243 24.6243 0 55 0C85.3757 0 110 24.6243 110 55Z" fill="#267AF8"/>
<path d="M72 41.25V45C72 48.4531 64.1641 51.25 54.5 51.25C44.8359 51.25 37 48.4531 37 45V41.25C37 37.7984 44.8359 35 54.5 35C64.1641 35 72 37.7984 72 41.25ZM67.7188 51.7734C69.2734 51.1953 70.8359 50.4531 72 49.5391V57.5C72 60.9531 64.1641 63.75 54.5 63.75C44.8359 63.75 37 60.9531 37 57.5V49.5391C38.1664 50.4531 39.6578 51.1953 41.2852 51.7734C44.7859 53.0234 49.4609 53.75 54.5 53.75C59.5391 53.75 64.2109 53.0234 67.7188 51.7734ZM41.2852 64.2734C44.7859 65.5234 49.4609 66.25 54.5 66.25C59.5391 66.25 64.2109 65.5234 67.7188 64.2734C69.2734 63.6953 70.8359 62.9531 72 62.0391V68.75C72 72.2031 64.1641 75 54.5 75C44.8359 75 37 72.2031 37 68.75V62.0391C38.1664 62.9531 39.6578 63.6953 41.2852 64.2734Z" fill="white"/>
</svg>
