<svg width="110" height="110" viewBox="0 0 110 110" fill="none" xmlns="http://www.w3.org/2000/svg">
<path d="M110 55C110 85.3757 85.3757 110 55 110C24.6243 110 0 85.3757 0 55C0 24.6243 24.6243 0 55 0C85.3757 0 110 24.6243 110 55Z" fill="#267AF8"/>
<path d="M54.6561 46.4643C54.903 46.4375 55.1499 46.4286 55.3968 46.4286C60.0706 46.4286 63.8624 50.1875 63.8624 55C63.8624 59.7321 60.0706 63.5714 55.3968 63.5714C50.6437 63.5714 46.9312 59.7321 46.9312 55C46.9312 54.75 46.94 54.5 46.9665 54.25C47.7866 54.6518 48.739 55 49.7531 55C52.866 55 55.3968 52.4375 55.3968 49.2857C55.3968 48.2589 55.0529 47.2946 54.6561 46.4643ZM72.381 42.1964C76.5079 46.0714 79.2681 50.6339 80.5732 53.9018C80.8642 54.6071 80.8642 55.3929 80.5732 56.0982C79.2681 59.2857 76.5079 63.8482 72.381 67.8036C68.2275 71.7143 62.5221 75 55.3968 75C48.2716 75 42.5661 71.7143 38.4145 67.8036C34.2875 63.8482 31.5291 59.2857 30.217 56.0982C29.9277 55.3929 29.9277 54.6071 30.217 53.9018C31.5291 50.6339 34.2875 46.0714 38.4145 42.1964C42.5661 38.2893 48.2716 35 55.3968 35C62.5221 35 68.2275 38.2893 72.381 42.1964ZM55.3968 42.1429C48.3863 42.1429 42.6984 47.9018 42.6984 55C42.6984 62.0982 48.3863 67.8571 55.3968 67.8571C62.4074 67.8571 68.0952 62.0982 68.0952 55C68.0952 47.9018 62.4074 42.1429 55.3968 42.1429Z" fill="white"/>
</svg>
